<?xml version="1.0" standalone="no"?>
<!DOCTYPE svg PUBLIC "-//W3C//DTD SVG 1.1//EN" "http://www.w3.org/Graphics/SVG/1.1/DTD/svg11.dtd" >
<svg xmlns="http://www.w3.org/2000/svg">
<defs>
<font id="webfontraqcPCR3" horiz-adv-x="1056" >
<font-face units-per-em="2048" ascent="1536" descent="-512" />
<missing-glyph horiz-adv-x="573" />
<glyph unicode=" "  horiz-adv-x="573" />
<glyph unicode="&#x09;" horiz-adv-x="573" />
<glyph unicode="&#xa0;" horiz-adv-x="573" />
<glyph unicode="!" horiz-adv-x="479" d="M336 336q0 -41 -28.5 -68.5t-67.5 -27.5q-41 0 -69 27.5t-28 68.5v932q0 41 28 68.5t69 27.5q39 0 67.5 -27.5t28.5 -68.5v-932zM336 96q0 -41 -28.5 -68.5t-67.5 -27.5q-41 0 -69 27.5t-28 68.5q0 39 28 68t69 29q39 0 67.5 -29t28.5 -68z" />
<glyph unicode="&#x22;" horiz-adv-x="681" d="M580 975q0 -41 -29 -68.5t-70 -27.5q-39 0 -67.5 28.5t-28.5 67.5v291q0 41 28.5 68.5t67.5 27.5q41 0 70 -27.5t29 -68.5v-291zM295 975q0 -39 -28.5 -67.5t-67.5 -28.5q-41 0 -69 28.5t-28 67.5v291q0 41 28 68.5t69 27.5q39 0 67.5 -27.5t28.5 -68.5v-291z" />
<glyph unicode="#" horiz-adv-x="1032" d="M971 829q0 -37 -18.5 -53t-45 -21t-56.5 -3t-54 2l-29 -230q23 0 49.5 1t50 -5t39 -22.5t15.5 -48.5q0 -37 -18.5 -53.5t-45.5 -21.5t-56.5 -3t-53.5 2l-43 -330q-4 -29 -25 -48.5t-51 -19.5q-33 0 -55.5 20.5t-22.5 55.5v12l41 310h-203l-43 -330q-4 -29 -24.5 -48.5 t-51.5 -19.5q-33 0 -55 20.5t-22 55.5v12l40 310q-25 0 -54 -2t-55 3t-44.5 21.5t-18.5 53.5q0 35 21.5 55t54.5 20h117l29 230q-25 0 -54.5 -2t-55.5 3t-44 21.5t-18 52.5q0 35 21.5 55.5t53.5 20.5h117l41 316q4 29 24.5 48t51.5 19q33 0 55.5 -20.5t22.5 -55.5v-12 l-39 -295h203l40 316q4 29 25 48t51 19q33 0 55.5 -20.5t22.5 -55.5v-12l-39 -295q23 0 49.5 1t50 -5t39 -22.5t15.5 -49.5zM438 754l-28 -230h202l29 228z" />
<glyph unicode="$" horiz-adv-x="907" d="M825 369q0 -66 -18.5 -117t-58.5 -98q-84 -90 -222 -109v-2v-119q0 -29 -21.5 -50t-49.5 -21q-31 0 -51.5 21.5t-20.5 49.5v117q-43 4 -95 29.5t-98.5 69.5t-77 105.5t-30.5 141.5q0 39 24 68q23 29 62 28q61 0 76 -57q10 -29 14 -63.5t21 -61.5q23 -37 45 -54.5 t59 -27.5v365q-70 31 -124 72.5t-92 88t-57.5 95.5t-19.5 94q0 68 17.5 119t60.5 98q45 47 96 74.5t119 36.5v104q0 29 20.5 50.5t51.5 21.5q29 0 50 -21.5t21 -50.5v-104q121 -23 185.5 -83.5t93.5 -174.5q4 -16 0 -38t-17 -36q-12 -12 -31.5 -21.5t-37.5 -9.5 q-53 0 -70 53l-14 49q-4 14 -19 35q-14 20 -37.5 32.5t-52.5 21.5v-371q139 -74 199 -129q51 -47 75.5 -105.5t24.5 -115.5zM383 1090q-53 -12 -88 -52q-16 -23 -23.5 -41t-7.5 -47q0 -25 7.5 -49t25.5 -49t39.5 -41t46.5 -31v310zM659 358q0 53 -38 103q-20 23 -41 33 t-54 28v-305q59 4 97 47q18 23 27 43t9 51z" />
<glyph unicode="%" horiz-adv-x="1538" d="M1192 1311q0 -14 -10 -31l-723 -1266q-16 -25 -45 -24q-53 0 -54 55q0 16 7 29l725 1263q14 27 45 27q55 0 55 -53zM750 1034q0 -70 -27 -130t-72 -104t-106.5 -69.5t-128.5 -25.5q-68 0 -129.5 25.5t-106.5 69.5t-71.5 104.5t-26.5 129.5q0 70 26.5 129.5t71.5 104.5 t106.5 70.5t129.5 25.5t129 -25.5t106 -70.5t72 -104.5t27 -129.5zM1456 301q0 -70 -26.5 -130t-71.5 -104t-105.5 -70t-130.5 -26q-68 0 -128 26t-105 70t-71.5 104t-26.5 130q0 68 26.5 128t71.5 105.5t105.5 71t127.5 25.5q70 0 130.5 -25.5t105.5 -71t71.5 -105.5 t26.5 -128zM594 1034q0 76 -50 130.5t-128 54.5t-128 -54.5t-50 -130.5t50 -129t128 -53t128 53t50 129zM1303 301q0 76 -51.5 130t-129.5 54q-76 0 -128 -54t-52 -130q0 -78 52.5 -130t127.5 -52q78 0 129.5 52t51.5 130z" />
<glyph unicode="&#x26;" horiz-adv-x="1245" d="M1204 82q0 -35 -24.5 -58.5t-59.5 -23.5q-16 0 -31.5 6t-25.5 19l-223 227q-31 -59 -68 -109.5t-84 -89.5t-104.5 -60.5t-126.5 -21.5q-82 0 -154 31t-126 85t-85 126t-31 154q0 141 73 238t202 155q-31 31 -56.5 60.5t-44 61t-27.5 69.5t-9 85q0 68 25.5 128.5 t70.5 105.5t105.5 70.5t129.5 25.5q68 0 128.5 -25.5t105.5 -70.5t70.5 -105.5t25.5 -128.5q0 -125 -66.5 -205.5t-179.5 -121.5l94 -94l95 -91l108 213q23 41 68 41q33 0 55 -22q27 -23 27 -58q0 -16 -10 -36l-133 -252l258 -267q28 -28 28 -61zM698 1036q0 72 -48 121 t-120 49t-121 -49t-49 -121q0 -35 12.5 -63.5t33 -54t43 -49t45.5 -44.5l70 36q36 17 65.5 41t49 55.5t19.5 78.5zM457 641l-88 -49q-43 -25 -77 -54.5t-54.5 -70.5t-20.5 -100q0 -49 19.5 -92.5t51 -76t76 -51t93.5 -18.5q61 0 101 19.5t68.5 53.5t50.5 77l46 90z" />
<glyph unicode="'" horiz-adv-x="397" d="M295 985q0 -39 -28.5 -66.5t-67.5 -27.5q-41 0 -69 27.5t-28 66.5v293q0 39 28 66.5t69 27.5q39 0 67.5 -27.5t28.5 -66.5v-293z" />
<glyph unicode="(" horiz-adv-x="722" d="M641 -174q0 -43 -30.5 -74t-73.5 -31q-23 0 -39.5 7.5t-34.5 23.5q-96 76 -160.5 173.5t-104.5 207t-57.5 228t-17.5 237.5q0 121 15.5 235.5t54 220t102 200t160.5 173.5q16 16 32.5 24.5t38.5 8.5q43 0 73 -30.5t30 -73.5q0 -23 -15.5 -47.5t-37 -49t-45 -47 t-37.5 -41.5q-49 -57 -82 -125.5t-52.5 -144.5t-28.5 -152.5t-9 -150.5q0 -156 37.5 -310.5t140.5 -279.5q31 -37 67 -74q10 -10 21.5 -18t21.5 -18q12 -16 21.5 -34t9.5 -38z" />
<glyph unicode=")" horiz-adv-x="722" d="M600 598q0 -119 -17.5 -237.5t-58.5 -228t-106.5 -207t-159.5 -173.5q-16 -16 -32.5 -23.5t-41.5 -7.5q-41 0 -71.5 31t-30.5 74q0 20 9 37.5t22 34.5q10 10 21 18t22 18q37 37 67 74q102 125 140 279.5t38 310.5q0 74 -9 150.5t-29.5 152.5t-53.5 144.5t-80 125.5 q-16 18 -39 41l-45 48q-23 25 -38 49t-15 47q0 43 31 73.5t74 30.5q23 0 39 -8t32 -25q96 -80 160 -174t102.5 -199.5t54 -220t15.5 -235.5z" />
<glyph unicode="*" horiz-adv-x="839" d="M758 1108q0 -49 -43 -64l-191 -59l119 -162q10 -12 10 -39t-19.5 -45t-45.5 -18q-31 0 -51 27l-115 161l-119 -161q-20 -27 -51 -27q-27 0 -46.5 18.5t-19.5 44.5q0 23 13 39l116 162l-188 59q-45 14 -45 64q0 27 22.5 49.5t47.5 13.5l204 -57v193q0 27 19.5 46t46.5 19 q25 0 44 -19.5t19 -45.5v-193l203 55q25 8 47.5 -13t22.5 -48z" />
<glyph unicode="+" horiz-adv-x="1052" d="M991 467q0 -41 -28.5 -68.5t-67.5 -27.5h-272v-275q0 -41 -29 -68.5t-68 -27.5q-41 0 -68.5 27.5t-27.5 68.5v275h-272q-41 0 -69 27.5t-28 68.5q0 39 28 66.5t69 27.5h272v277q0 39 27.5 66.5t68.5 27.5q39 0 68 -27.5t29 -66.5v-277h272q39 0 67.5 -27.5t28.5 -66.5z " />
<glyph unicode="," horiz-adv-x="477" d="M295 -160q-8 -23 -31.5 -46t-83.5 -23q-23 0 -44 12t-34.5 31.5t-18.5 44t5 49.5l92 250q14 37 47 59.5t74 18.5q27 -4 47.5 -19.5t32.5 -37t14 -47.5t-6 -46z" />
<glyph unicode="-" horiz-adv-x="831" d="M770 537q0 -39 -28.5 -68t-67.5 -29h-516q-41 0 -69 29t-28 68t28 67.5t69 28.5h516q39 0 67.5 -28.5t28.5 -67.5z" />
<glyph unicode="." horiz-adv-x="471" d="M369 113q0 -55 -39 -94t-94 -39t-94.5 38.5t-39.5 94.5q0 55 39 94t95 39q55 0 94 -39t39 -94z" />
<glyph unicode="/" horiz-adv-x="784" d="M723 1360q0 -18 -8 -35l-461 -1348q-20 -66 -92 -65q-41 0 -71 28.5t-30 69.5q0 16 7 33l462 1350q20 68 93 67q41 0 70.5 -29.5t29.5 -70.5z" />
<glyph unicode="0" horiz-adv-x="1093" d="M1012 442q0 -104 -34 -190t-95.5 -146.5t-147.5 -94.5t-190 -34q-109 0 -195 36t-145.5 100.5t-91 151.5t-31.5 192v475q0 100 36 185t99.5 146.5t149.5 96.5t184 35q94 0 178 -35t147.5 -94.5t99.5 -142.5t36 -177v-504zM819 946q0 123 -72.5 199t-195.5 76 q-61 0 -112.5 -20.5t-87.5 -56.5t-56.5 -86t-20.5 -112v-504q0 -129 73 -208.5t204 -79.5q135 0 201.5 79.5t66.5 208.5v504z" />
<glyph unicode="1" horiz-adv-x="686" d="M502 96q0 -41 -29 -68.5t-67 -27.5q-39 0 -68 27.5t-29 68.5v1092h-200q-37 0 -63 26.5t-26 63.5t26 61.5t63 24.5h393v-1268z" />
<glyph unicode="2" horiz-adv-x="1069" d="M1049 88q0 -35 -26 -61.5t-62 -26.5h-783q-41 0 -68.5 27.5t-27.5 68.5q0 39 31 70l530 541q51 49 88 112.5t37 134.5q0 51 -16.5 98.5t-47 83t-73.5 57t-96 21.5q-68 0 -114 -21.5t-75 -59t-41 -91t-12 -114.5q0 -41 -28.5 -69t-67.5 -28q-41 0 -69 28t-28 69 q0 102 27 187t80 146.5t133 95.5t188 34q92 0 171 -35t136.5 -94.5t90 -140.5t32.5 -173q0 -123 -53 -212t-135 -173l-381 -389h572q37 0 62.5 -24.5t25.5 -61.5z" />
<glyph unicode="3" horiz-adv-x="1087" d="M985 377q0 -96 -35 -171t-95 -126t-141 -78t-171 -27q-84 0 -164 29t-141.5 81t-98.5 125t-37 163q0 41 29 64.5t68 23.5q37 0 66.5 -24.5t29.5 -63.5q0 -53 20.5 -96.5t56.5 -73t82 -46t97 -16.5q49 0 92 17.5t77 48.5t53.5 73t19.5 91q0 53 -20.5 95t-56.5 70.5t-82 44 t-95 15.5h-70q-39 0 -67.5 24.5t-28.5 65.5q0 39 29.5 63.5t66.5 24.5h70q113 0 173 51.5t60 173.5q0 49 -17.5 92.5t-48 74t-71.5 48t-90 17.5q-102 0 -166 -49t-64 -156q0 -41 -28.5 -65.5t-67.5 -24.5t-67.5 23.5t-28.5 64.5q0 90 32.5 158.5t90 116t133.5 71t160 23.5 q90 0 167.5 -27t135 -77t90.5 -124.5t33 -171.5q0 -102 -39 -178t-125 -129q86 -53 135 -130t49 -179z" />
<glyph unicode="4" horiz-adv-x="1140" d="M1100 301q0 -35 -25.5 -61.5t-60.5 -26.5h-131v-123q0 -41 -27 -65.5t-65 -24.5q-41 0 -69 27.5t-28 68.5v117h-536q-86 0 -111 70q-10 31 -4 56.5t29 59.5l573 887q23 35 59.5 56.5t67.5 21.5q55 0 83 -30.5t28 -63.5v-881h131q35 0 60.5 -25.5t25.5 -62.5zM694 1044 l-401 -655h401v655z" />
<glyph unicode="5" horiz-adv-x="1075" d="M1014 457q0 -106 -38 -194.5t-102.5 -153t-152.5 -100.5t-186 -36q-109 0 -196 33t-148.5 90.5t-95.5 135t-34 167.5q0 47 26 77t65 30t66.5 -26.5t27.5 -65.5q0 -51 21.5 -99.5t59.5 -85t91 -58t117 -21.5q61 0 113 24.5t92 65.5t62.5 97t22.5 120q0 63 -22.5 120.5 t-61.5 100.5t-91 67.5t-111 24.5q-53 0 -95.5 -8t-73 -20.5t-51.5 -25.5l-32 -22q-14 -6 -29 -10q-12 -4 -26.5 -6t-24.5 2q-29 10 -48.5 35.5t-15.5 54.5l88 594h623q37 0 62.5 -25.5t25.5 -60.5q0 -37 -25.5 -63.5t-62.5 -26.5h-465l-39 -281q25 10 56 19q27 6 61.5 11 t75.5 7q98 2 184 -35t149.5 -102.5t100.5 -155.5t37 -194z" />
<glyph unicode="6" horiz-adv-x="1089" d="M1028 457q0 -100 -38 -188.5t-102.5 -155t-152.5 -104.5t-188 -38q-102 0 -190.5 38t-154 104.5t-103.5 154.5t-38 189q0 70 17.5 135t58.5 123l395 565l43 57q20 27 66 27q37 0 62.5 -26.5t25.5 -65.5q0 -25 -14.5 -49.5t-28.5 -44.5l-166 -244h39q98 0 184 -38 t149.5 -103.5t99.5 -151.5t36 -184zM848 457q0 63 -23.5 118.5t-64.5 96.5t-95.5 65.5t-117.5 24.5t-118.5 -24.5t-97.5 -65.5t-65.5 -96.5t-23.5 -118.5t23.5 -118.5t65.5 -96.5t97 -64.5t119 -23.5q63 0 117.5 23.5t95.5 64.5t64.5 96.5t23.5 118.5z" />
<glyph unicode="7" horiz-adv-x="978" d="M938 1268q0 -10 -5 -26.5t-12.5 -36t-15.5 -38t-12 -28.5l-455 -1078q-25 -63 -90 -63q-41 0 -68.5 28.5t-27.5 69.5q0 23 8 41l453 1051h-590q-35 0 -58.5 27.5t-23.5 60.5q0 35 23.5 60.5t58.5 25.5h719q41 0 68.5 -26.5t27.5 -67.5z" />
<glyph unicode="8" horiz-adv-x="960" d="M899 391q0 -88 -32.5 -164.5t-90 -133t-133.5 -89.5t-164 -33q-86 0 -162.5 33t-133 89.5t-89.5 133t-33 164.5q0 217 177 340q-131 115 -132 285q0 76 30 144.5t80 118.5t117.5 80t145.5 30t145.5 -30t119 -80t80 -118.5t28.5 -144.5q0 -170 -131 -285 q178 -125 178 -340zM686 1016q0 43 -16.5 80t-44 64.5t-65.5 44t-81 16.5t-80 -16.5t-65.5 -44t-45 -64.5t-16.5 -80t16.5 -81t45 -65.5t65.5 -44t80 -16.5t81 16.5t65.5 44t44 65.5t16.5 81zM733 391q0 53 -19.5 99.5t-54 80t-81 53t-99.5 19.5t-99 -19.5t-80 -53 t-53.5 -80t-19.5 -99.5t19.5 -99t53.5 -81t80 -54.5t99 -19.5t99.5 19.5t81 54.5t54 81t19.5 99z" />
<glyph unicode="9" horiz-adv-x="1089" d="M1028 905q0 -70 -16.5 -135t-57.5 -123l-395 -563l-43 -59.5t-65 -26.5q-39 0 -64 26.5t-25 65.5q0 27 14.5 50.5t29.5 43.5l157 238h-28q-98 0 -185.5 39t-151 105.5t-100.5 153.5t-37 185q0 100 38 188.5t103.5 155t153.5 104.5t189 38q100 0 189 -38t153.5 -103.5 t102.5 -155t38 -189.5zM848 905q0 63 -23.5 118.5t-64.5 96.5t-96.5 64.5t-118.5 23.5t-118.5 -23.5t-96.5 -64.5t-64.5 -96t-23.5 -119q0 -63 23.5 -118.5t64.5 -97.5t96 -65.5t119 -23.5q63 0 118.5 23.5t96.5 65.5t64.5 97.5t23.5 118.5z" />
<glyph unicode=":" horiz-adv-x="512" d="M389 911q0 -55 -39 -94t-94 -39t-94 39t-39 94q0 53 39 92t94 39t94 -39t39 -92zM389 115q0 -55 -39 -94t-94 -39t-94 38.5t-39 94.5q0 55 39 94t94 39t94 -39t39 -94z" />
<glyph unicode=";" horiz-adv-x="555" d="M399 911q0 -55 -38.5 -94t-94.5 -39q-53 0 -93 39t-40 94q0 53 40 92t93 39q55 0 94 -39t39 -92zM315 -160q-16 -45 -40.5 -57t-73.5 -12q-23 0 -43.5 13t-34.5 32.5t-19.5 43t2.5 46.5l95 252q27 72 104 71q23 0 46.5 -11t39 -31.5t20.5 -48t-8 -58.5z" />
<glyph unicode="&#x3c;" horiz-adv-x="1200" d="M1098 156q0 -39 -29 -68q-27 -27 -65 -27q-18 0 -35 5l-807 327q-59 23 -60 88q0 61 60 86l807 326q16 8 35 8q39 0 65 -27q29 -29 29 -67q0 -63 -60 -88l-592 -238l592 -239q60 -25 60 -86z" />
<glyph unicode="=" horiz-adv-x="1325" d="M1223 672q0 -41 -28 -69t-69 -28h-927q-41 0 -69 28t-28 69q0 39 28 66.5t69 27.5h927q41 0 69 -27.5t28 -66.5zM1223 268q0 -39 -28 -66.5t-69 -27.5h-927q-41 0 -69 27.5t-28 66.5q0 41 28 69t69 28h927q41 0 69 -28t28 -69z" />
<glyph unicode="&#x3e;" horiz-adv-x="1200" d="M1098 481q0 -63 -60 -86l-807 -327q-16 -6 -34 -7q-39 0 -67 27t-28 68q0 61 60 86l592 239l-592 240q-59 25 -60 86q0 41 28 67.5t67 26.5q20 0 34 -8l807 -326q60 -23 60 -86z" />
<glyph unicode="?" horiz-adv-x="985" d="M903 977q0 -55 -10 -99t-31.5 -82t-52.5 -72t-70 -71q-12 -12 -30.5 -27.5t-35.5 -33.5l-33 -36q-15 -17 -24 -32q-23 -39 -28.5 -85t-5.5 -89q0 -39 -29 -67.5t-68 -28.5t-67.5 28.5t-28.5 67.5q0 78 19.5 151.5t64.5 139.5q27 39 67 76l78 76q39 39 67 82t28 94 q0 45 -16.5 87t-45 72.5t-68.5 49t-87 18.5q-102 0 -155.5 -64.5t-66.5 -156.5q-6 -43 -27.5 -69.5t-68.5 -26.5q-41 0 -68.5 27.5t-27.5 68.5q0 88 31.5 163.5t88 132t132.5 88.5t162 32t159.5 -33t129 -89.5t87 -132t31.5 -159.5zM582 96q0 -41 -29 -68.5t-68 -27.5 t-67.5 27.5t-28.5 68.5q0 39 28.5 68t67.5 29t68 -29t29 -68z" />
<glyph unicode="@" horiz-adv-x="1452" d="M1464 487q0 -80 -24.5 -147.5t-67.5 -114.5t-102.5 -73.5t-128.5 -26.5q-31 0 -64 10t-62.5 28.5t-50 45.5t-22.5 61q-47 -63 -120.5 -98t-151.5 -35q-68 0 -125.5 22.5t-99.5 63.5t-64.5 97.5t-22.5 125.5q0 86 32 163t88.5 134.5t134 91t169.5 33.5q70 0 128.5 -24.5 t90.5 -89.5l23 63q6 16 21.5 28.5t39.5 12.5q23 0 37.5 -9t23.5 -23.5t11 -29t0 -26.5l-88 -393q-6 -35 0 -62q4 -23 22.5 -42t59.5 -19q43 0 73.5 20.5t52 52t32 72.5t10.5 82q0 127 -37 233.5t-107.5 184.5t-174 122t-236.5 44q-117 0 -218.5 -45t-177 -122t-118.5 -179.5 t-43 -218.5q0 -133 44 -236.5t121 -175.5t180 -109.5t220 -37.5q86 0 162 16t147 66l23.5 15t28.5 5q31 0 52 -21.5t21 -52.5q0 -35 -28 -57h2q-49 -37 -96.5 -60.5t-96.5 -37t-101 -17.5t-114 -4q-147 0 -277 47t-226.5 137.5t-153 221.5t-56.5 301q0 147 54.5 277 t149.5 227.5t224 152.5t277 55q164 0 294 -54t220 -150.5t138 -229.5t48 -291zM967 551q0 92 -55.5 146.5t-147.5 54.5q-55 0 -105.5 -25t-87 -65.5t-59.5 -93t-23 -107.5q0 -86 54.5 -141.5t142.5 -55.5q57 0 108.5 23.5t89.5 63.5t60.5 91.5t22.5 108.5z" />
<glyph unicode="A" horiz-adv-x="1304" d="M1284 98q0 -41 -28.5 -69.5t-69.5 -28.5q-31 0 -57.5 17.5t-36.5 45.5l-121 306h-635l-123 -306q-10 -29 -35.5 -46t-56.5 -17q-41 0 -71 29.5t-30 70.5q0 18 9 33l530 1258q14 35 35.5 52t58.5 17t58.5 -18.5t36.5 -50.5l530 -1258q6 -17 6 -35zM655 1165l-252 -626h500 z" />
<glyph unicode="B" horiz-adv-x="1107" d="M1057 416q0 -92 -26.5 -168t-78 -131.5t-125 -86t-168.5 -30.5h-438q-41 0 -69.5 29.5t-28.5 70.5v1262q0 41 28.5 69.5t69.5 28.5h404q84 0 156.5 -29.5t126 -83t83 -125t29.5 -157.5q0 -94 -38 -176t-116 -137q86 -53 138.5 -142.5t52.5 -193.5zM838 1067 q0 47 -17.5 88t-47.5 70.5t-70.5 47t-88.5 17.5h-297v-450h312q47 0 85 18.5t65.5 50t43 72.5t15.5 86zM860 420q0 49 -15.5 94t-45 81t-71.5 56.5t-93 20.5h-318v-504h318q53 0 95 20.5t70.5 56.5t44 81t15.5 94z" />
<glyph unicode="C" horiz-adv-x="1536" d="M1475 1087q0 -41 -28 -68.5t-69 -27.5q-31 0 -53 15.5t-39 37.5q-92 119 -202.5 185.5t-264.5 66.5q-115 0 -217 -44t-178 -119.5t-120 -178t-44 -217.5q0 -117 44 -219t119 -179t177 -122t219 -45q154 0 264.5 66.5t202.5 185.5q16 23 39 39t53 16q41 0 68 -29.5 t27 -70.5q0 -27 -9 -45q-45 -84 -116.5 -150.5t-158.5 -113.5t-182.5 -73t-187.5 -26q-158 0 -296 60.5t-240.5 165t-162 244t-59.5 296.5q0 156 59.5 294t163 241.5t241 163t294.5 59.5q94 0 189.5 -24.5t181.5 -71.5t156.5 -114.5t117.5 -151.5q11 -21 11 -46z" />
<glyph unicode="D" horiz-adv-x="1400" d="M1339 725q0 -119 -33.5 -230.5t-97 -203.5t-157 -160t-209.5 -100q-72 -20 -148 -25.5t-149 -5.5h-332q-37 0 -63.5 26.5t-26.5 63.5v1280q0 37 27.5 63.5t64.5 26.5h391q166 0 301 -52t231.5 -149.5t148.5 -232.5t52 -301zM1155 723q0 137 -43 243.5t-121 179.5 t-188.5 109.5t-245.5 36.5h-235v-1128h276q129 0 232.5 39t175 111.5t110.5 176t39 232.5z" />
<glyph unicode="E" horiz-adv-x="976" d="M895 86q0 -35 -24.5 -60.5t-59.5 -25.5h-590q-41 0 -69.5 28.5t-28.5 69.5v1262q0 41 29.5 70.5t70.5 29.5h588q35 0 59.5 -25.5t24.5 -60.5t-24.5 -60.5t-59.5 -25.5h-492v-461h492q35 0 59.5 -25.5t24.5 -60.5t-24.5 -60.5t-59.5 -25.5h-492v-483h492q35 0 59.5 -25.5 t24.5 -60.5z" />
<glyph unicode="F" horiz-adv-x="958" d="M897 743q0 -35 -25.5 -61.5t-60.5 -26.5h-492v-557q0 -41 -28.5 -69.5t-69.5 -28.5t-69.5 28.5t-28.5 69.5v1262q0 41 29.5 70.5t70.5 29.5h588q35 0 60.5 -24.5t25.5 -61.5q0 -35 -25.5 -60.5t-60.5 -25.5h-492v-461h492q35 0 60.5 -24.5t25.5 -59.5z" />
<glyph unicode="G" horiz-adv-x="1636" d="M1575 694q0 -164 -53.5 -297t-150.5 -227t-231 -146.5t-296 -52.5q-160 0 -302.5 60.5t-249 165t-169 245t-62.5 301.5q0 160 63.5 297.5t171 238.5t249 158.5t299.5 57.5q80 0 160.5 -16.5t156.5 -48t142.5 -78.5t119.5 -109q12 -14 20.5 -31.5t8.5 -37.5 q0 -41 -28.5 -69t-67.5 -28t-70 31q-51 47 -100 84t-101.5 61.5t-112 38t-128.5 13.5q-117 0 -223.5 -43t-187.5 -119t-129 -179.5t-48 -222.5q0 -121 47 -226t127 -183t186.5 -123t227.5 -45q211 0 351 117.5t187 320.5h-567q-39 0 -65.5 27.5t-26.5 64.5q0 39 26.5 65.5 t65.5 26.5h668q39 0 65.5 -26.5t26.5 -65.5z" />
<glyph unicode="H" horiz-adv-x="1314" d="M1192 98q0 -41 -29.5 -69.5t-70.5 -28.5t-69 28.5t-28 69.5v557h-676v-557q0 -41 -28.5 -69.5t-69.5 -28.5t-69.5 28.5t-28.5 69.5v1264q0 41 28.5 69.5t69.5 28.5t69.5 -28.5t28.5 -69.5v-533h676v533q0 41 28 69.5t69 28.5t70.5 -28.5t29.5 -69.5v-1264z" />
<glyph unicode="I" horiz-adv-x="442" d="M319 98q0 -41 -28.5 -69.5t-69.5 -28.5t-69.5 28.5t-28.5 69.5v1264q0 41 28.5 69.5t69.5 28.5t69.5 -28.5t28.5 -69.5v-1264z" />
<glyph unicode="J" horiz-adv-x="1054" d="M932 408q0 -90 -35 -169t-94.5 -138.5t-138 -94.5t-168.5 -35t-169 35t-138.5 94.5t-93.5 138t-34 169.5q0 41 29 69.5t70 28.5t67.5 -28.5t26.5 -69.5q0 -49 19.5 -93.5t51 -77t75.5 -51t94 -18.5q49 0 93 18.5t76.5 51t51 76.5t18.5 94v954q0 41 29 70.5t69 29.5 q41 0 71 -29.5t30 -70.5v-954z" />
<glyph unicode="K" horiz-adv-x="1101" d="M1061 92q0 -41 -30 -66.5t-68 -25.5q-41 0 -66 27l-555 675q-12 14 -8 31l-2 2q0 12 10 27l547 670q12 16 29.5 22t35.5 6q39 0 69 -26.5t30 -67.5q0 -20 -8.5 -37.5t-20.5 -32.5l-471 -565l481 -567q27 -33 27 -72zM317 98q0 -41 -27.5 -69.5t-68.5 -28.5t-69.5 28.5 t-28.5 69.5v1264q0 41 28.5 69.5t69.5 28.5t68.5 -28.5t27.5 -69.5v-1264z" />
<glyph unicode="L" horiz-adv-x="937" d="M897 86q0 -35 -25.5 -60.5t-60.5 -25.5h-590q-41 0 -69.5 28.5t-28.5 69.5v1264q0 41 28.5 69.5t69.5 28.5t69.5 -28.5t28.5 -69.5v-1190h492q35 0 60.5 -25.5t25.5 -60.5z" />
<glyph unicode="M" horiz-adv-x="1798" d="M1675 96q0 -41 -28.5 -68.5t-69.5 -27.5t-70.5 27.5t-29.5 68.5v1082l-469 -1049q-14 -31 -43 -50.5t-64 -19.5t-65.5 19.5t-44.5 50.5l-472 1049v-1082q0 -41 -29.5 -68.5t-68.5 -27.5q-41 0 -69.5 27.5t-28.5 68.5v1217q0 66 43 107.5t106 41.5q68 0 106 -28.5 t64 -87.5l457 -1041l457 1041q27 59 64.5 87.5t103.5 28.5t108.5 -42t42.5 -107v-1217z" />
<glyph unicode="N" horiz-adv-x="1443" d="M1321 137q0 -55 -41 -96t-96 -41q-43 0 -78 23.5t-59 58.5l-728 1077v-1063q0 -41 -30.5 -68.5t-69.5 -27.5q-41 0 -68.5 27.5t-27.5 68.5v1225q0 55 41 96t96 41q43 0 78 -23.5t59 -58.5l727 -1077v1063q0 41 31 68.5t70 27.5q41 0 68.5 -28.5t27.5 -67.5v-1225z" />
<glyph unicode="O" horiz-adv-x="1683" d="M1622 737q0 -160 -62.5 -300t-169 -243.5t-248 -163t-298.5 -59.5q-160 0 -302.5 60.5t-249 165t-169 245t-62.5 301.5q0 160 63.5 297.5t171 238.5t249 158.5t299.5 57.5t299 -58.5t247.5 -160.5t169 -240.5t62.5 -298.5zM1427 737q0 119 -47 223.5t-126.5 180.5 t-186 120t-223.5 44t-223.5 -43t-187.5 -119t-129 -179.5t-48 -222.5q0 -121 47 -226t127 -183t186.5 -123t227.5 -45q119 0 224.5 44t185 122t126.5 182t47 225z" />
<glyph unicode="P" horiz-adv-x="1077" d="M1036 1030q0 -88 -27.5 -166t-78.5 -137t-125 -94t-166 -35h-322v-500q0 -41 -27.5 -69.5t-68.5 -28.5t-69.5 28.5t-28.5 69.5v1264q0 41 28.5 69.5t69.5 28.5h418q92 0 165 -33.5t125 -92t79.5 -137.5t27.5 -167zM856 1030q0 125 -79 189.5t-197 64.5h-263v-510h263 q121 0 198.5 64.5t77.5 191.5z" />
<glyph unicode="Q" horiz-adv-x="1722" d="M1702 92q0 -37 -27.5 -64.5t-64.5 -27.5q-25 0 -57.5 22.5t-64.5 53t-59.5 62.5t-46.5 50q-117 -96 -251 -156.5t-287 -60.5q-160 0 -302.5 60.5t-249 165t-169 246t-62.5 302.5q0 160 63.5 297.5t171 238.5t249 158.5t299.5 57.5t299 -58.5t248.5 -159.5t170 -240.5 t62.5 -299.5q0 -104 -29.5 -213.5t-95.5 -193.5l174 -174q29 -25 29 -66zM1427 737q0 119 -47 223.5t-126.5 180.5t-186 120t-223.5 44t-223.5 -43t-187.5 -119t-129 -179.5t-48 -222.5q0 -121 47 -226t127 -183t186.5 -123t227.5 -45q115 0 218 38t185 122l-198 198 q-27 27 -27 66q0 37 27.5 64.5t64.5 27.5t64 -27l182 -182q31 61 49 128.5t18 137.5z" />
<glyph unicode="R" horiz-adv-x="1216" d="M1155 1030q0 -78 -20.5 -149.5t-61.5 -129t-102.5 -96.5t-141.5 -49l310 -461q16 -23 16 -51q0 -41 -27.5 -67.5t-68.5 -26.5q-23 0 -44.5 11.5t-33.5 29.5l-375 557h-289v-500q0 -41 -27.5 -69.5t-68.5 -28.5t-69.5 28.5t-28.5 69.5v1264q0 41 28.5 69.5t69.5 28.5h537 q92 0 164.5 -33.5t125 -92t80 -137.5t27.5 -167zM977 1028q0 63 -21.5 111.5t-58.5 80t-88 48t-111 16.5h-381v-510h381q119 0 199 63.5t80 190.5z" />
<glyph unicode="S" horiz-adv-x="1073" d="M1022 418q0 -100 -37 -183t-101.5 -141.5t-150.5 -90.5t-184 -32q-106 0 -197.5 32t-158 91.5t-104.5 145.5t-38 196q0 41 27.5 74t68.5 33q39 0 58.5 -21.5t29 -52.5t13.5 -65.5t12 -61.5q35 -102 114 -145t181 -43q53 0 102.5 20.5t87 56t60 82.5t22.5 103 q0 80 -52 130t-131 88t-170 72.5t-170 85t-131 125t-52 191.5q0 84 33.5 155.5t91 123t132.5 80t157 28.5q68 0 134 -14.5t123.5 -45t101.5 -79.5t69 -117q10 -27 16 -54.5t6 -56.5q0 -45 -27.5 -65.5t-68.5 -20.5q-35 0 -54.5 20.5t-35 52.5t-30.5 68t-43 67.5t-71 52 t-112 20.5q-43 0 -84 -16.5t-73 -45t-52.5 -66.5t-20.5 -83q0 -82 52.5 -132t131 -87t171 -69.5t171.5 -83t131 -126t52 -196.5z" />
<glyph unicode="T" horiz-adv-x="1003" d="M983 1372q0 -37 -25.5 -64.5t-62.5 -27.5h-295v-1182q0 -41 -28.5 -69.5t-69.5 -28.5t-70 28.5t-29 69.5v1182h-292q-37 0 -64 27.5t-27 64.5t27 62.5t64 25.5h784q37 0 62.5 -25.5t25.5 -62.5z" />
<glyph unicode="U" horiz-adv-x="1327" d="M1225 651q0 -74 -7.5 -148.5t-27 -144t-55 -133t-93.5 -114.5q-78 -70 -176 -105t-202 -35q-102 0 -202 35t-177 105q-57 51 -93 114.5t-55.5 134t-27 144.5t-7.5 147v705q0 41 31 72.5t72 31.5t72.5 -31.5t31.5 -72.5v-705q0 -92 13.5 -181t52.5 -158.5t108.5 -112.5 t180.5 -43q113 0 181 43t107 112.5t52.5 158.5t13.5 181v705q0 41 31.5 72.5t72.5 31.5t72 -31.5t31 -72.5v-705z" />
<glyph unicode="V" horiz-adv-x="1255" d="M1235 1358q0 -18 -6 -37l-508 -1258q-10 -29 -37 -46t-57 -17q-66 0 -92 63l-506 1258q-8 16 -9 39q0 43 31 71.5t72 28.5q29 0 54.5 -17.5t37.5 -45.5l412 -1024l413 1024q10 29 36 46t57 17q41 0 71.5 -29.5t30.5 -72.5z" />
<glyph unicode="W" horiz-adv-x="2244" d="M2142 651q0 -74 -6 -148.5t-26.5 -144t-56.5 -133t-93 -114.5q-47 -41 -88 -68t-85 -43t-93 -22.5t-111 -6.5q-61 0 -111.5 6.5t-94.5 21.5t-87 43t-90 69q-43 39 -76 88l-38.5 -45.5t-41.5 -42.5q-45 -41 -88 -68t-87 -43t-94 -22.5t-111 -6.5t-110.5 6.5t-93.5 22.5 t-86 43t-89 68q-59 51 -94 114.5t-55.5 133t-27 144.5t-6.5 148v705q0 43 31 73.5t72 30.5q43 0 73.5 -30.5t30.5 -73.5v-705q0 -94 13.5 -183t52.5 -158.5t108.5 -111.5t180.5 -42q113 0 182 42t108 111.5t52.5 158.5t13.5 183v705q0 43 30.5 73.5t73.5 30.5q41 0 71 -30.5 t30 -73.5v-705q0 -94 13 -183t52 -158.5t108.5 -111.5t182.5 -42q111 0 180.5 42t108.5 111.5t52 158.5t13 183v705q0 43 31 73.5t74 30.5t72.5 -30.5t29.5 -73.5v-705z" />
<glyph unicode="X" horiz-adv-x="1292" d="M1231 96q0 -39 -27.5 -67.5t-66.5 -28.5q-18 0 -44 9t-36 26l-412 551l-409 -551q-14 -18 -36 -26.5t-44 -8.5q-35 0 -65 26.5t-30 63.5q0 39 23 68l440 596l-411 540q-23 29 -23 66q0 41 30 70.5t73 29.5q47 0 77 -37l375 -499l377 499q31 37 78 37q39 0 69.5 -26.5 t30.5 -67.5q0 -20 -4 -36.5t-18 -33.5q-33 -41 -64 -84l-63 -86l-283 -372l440 -596q23 -29 23 -62z" />
<glyph unicode="Y" d="M1036 1360q0 -10 -2 -21.5t-8 -21.5l-397 -825v-392q0 -41 -30 -70.5t-71 -29.5t-69.5 29.5t-28.5 70.5v392l-399 825q-10 20 -11 43q0 41 30 70.5t71 29.5q63 0 90 -55l317 -680l318 680q12 27 37.5 41t54.5 14q41 0 69.5 -29.5t28.5 -70.5z" />
<glyph unicode="Z" horiz-adv-x="1179" d="M1118 1358q0 -25 -18 -53l-752 -1112h672q41 0 68.5 -28t27.5 -69t-27.5 -68.5t-68.5 -27.5h-860q-41 0 -70 29.5t-29 70.5q0 20 6.5 35t18.5 31l745 1102h-671q-41 0 -69 27.5t-28 68.5t28 68.5t69 27.5h856q45 0 73.5 -28.5t28.5 -73.5z" />
<glyph unicode="[" horiz-adv-x="759" d="M678 -334q0 -51 -31 -69.5t-76 -18.5q-100 0 -196 45q-131 59 -191.5 169t-60.5 251v954q0 100 36 185.5t98 147t148.5 96t186.5 34.5q37 0 61.5 -24.5t24.5 -63.5q0 -35 -25.5 -61.5t-60.5 -26.5q-123 0 -200 -75.5t-77 -198.5v-967q0 -129 72 -210t205 -81 q37 0 61.5 -24.5t24.5 -61.5z" />
<glyph unicode="\" horiz-adv-x="784" d="M723 10q0 -41 -29.5 -69.5t-70.5 -28.5q-72 0 -93 68l-460 1345q-8 16 -9 35q0 41 30 70.5t71 29.5q70 0 92 -67l463 -1348q6 -19 6 -35z" />
<glyph unicode="]" horiz-adv-x="759" d="M637 45q0 -143 -60.5 -251.5t-191.5 -170.5q-96 -45 -197 -45q-45 0 -75.5 18.5t-30.5 67.5q0 37 25.5 62.5t60.5 25.5q133 0 204.5 81t71.5 210v967q0 123 -76.5 198.5t-199.5 75.5q-37 0 -61.5 25.5t-24.5 62.5q0 35 25.5 61.5t60.5 26.5q100 0 185 -34.5t148.5 -96 t99.5 -146.5t36 -186v-952z" />
<glyph unicode="^" horiz-adv-x="997" d="M915 772q0 -35 -26.5 -58.5t-61.5 -23.5q-31 0 -48 14.5t-31 40.5l-250 449l-248 -449q-14 -27 -32.5 -41t-49.5 -14q-35 0 -60.5 23.5t-25.5 58.5q0 8 1 16.5t5 14.5l324 606q29 51 86 51q59 0 88 -51l323 -606q2 -4 4 -15.5t2 -15.5z" />
<glyph unicode="_" horiz-adv-x="1220" d="M1139 -178q0 -39 -28 -67.5t-69 -28.5h-864q-41 0 -68.5 28.5t-27.5 67.5q0 41 27.5 68.5t68.5 27.5h864q41 0 69 -27.5t28 -68.5z" />
<glyph unicode="`" horiz-adv-x="759" d="M649 1190q-16 -31 -50 -42t-64 5l-385 197q-31 16 -43.5 50t4.5 64q16 31 50 42.5t66 -5.5l385 -194q31 -16 42 -50t-5 -67z" />
<glyph unicode="a" horiz-adv-x="1247" d="M1145 96q0 -41 -27.5 -68.5t-68.5 -27.5q-39 0 -67 27.5t-28 68.5v62q-59 -98 -149 -141.5t-201 -43.5q-115 0 -214 40t-172 111t-115 169t-42 213q0 117 41 217t114 172t172 113t216 41q106 0 197.5 -40t152.5 -132v49q0 41 28 68.5t67 27.5q41 0 68.5 -27.5t27.5 -68.5 v-830zM956 508q0 78 -25.5 145.5t-71.5 116.5t-110.5 76.5t-144.5 27.5q-76 0 -140.5 -29.5t-110.5 -79.5t-72.5 -116.5t-26.5 -140.5q0 -72 26.5 -137.5t72.5 -114.5t110.5 -77.5t138.5 -28.5q76 0 140.5 27.5t111.5 76.5t74.5 114.5t27.5 139.5z" />
<glyph unicode="b" horiz-adv-x="1241" d="M1180 510q0 -113 -42 -210t-115 -170t-170 -115t-210 -42t-211 42t-172 115t-116 170t-42 210v854q0 39 28 67.5t69 28.5q39 0 67.5 -28.5t28.5 -67.5v-442q150 125 348 125q113 0 210 -42t170 -114t115 -170t42 -211zM991 510q0 74 -26.5 139.5t-72.5 115.5t-110.5 79.5 t-138.5 29.5t-138.5 -29.5t-110.5 -79.5t-72.5 -115.5t-26.5 -139.5t26.5 -139.5t72.5 -114.5t110.5 -77.5t138.5 -28.5t138.5 28.5t110.5 77.5t72.5 114.5t26.5 139.5z" />
<glyph unicode="c" horiz-adv-x="1114" d="M1042 270q0 -39 -22 -73q-35 -53 -83 -94.5t-105.5 -70t-121 -44t-124.5 -15.5q-115 0 -210 42t-166 115t-110 170t-39 210t39 211t110 170t166 114t210 42q61 0 124.5 -14.5t121 -43t105.5 -70.5t83 -96q23 -35 22 -73q0 -39 -24.5 -70t-65.5 -31q-20 0 -41.5 7.5 t-33.5 23.5q-8 10 -13.5 23.5t-11.5 23.5q-39 72 -111.5 108.5t-152.5 36.5q-78 0 -140.5 -27.5t-105.5 -76.5t-65.5 -115.5t-22.5 -142.5t22.5 -141.5t65.5 -114.5t105.5 -76.5t140.5 -27.5q80 0 152.5 36.5t111.5 108.5q6 10 11 23.5t14 21.5q12 16 33.5 24.5t41.5 8.5 q41 0 65.5 -32t24.5 -71z" />
<glyph unicode="d" horiz-adv-x="1220" d="M1139 512q0 -113 -42 -211t-115 -171t-170 -115t-210 -42t-211 42t-172 115t-116 171t-42 211t42 211t116 170t172 114t211 42q197 0 348 -127v442q0 39 28 67.5t69 28.5q39 0 65.5 -28.5t26.5 -67.5v-852zM950 512q0 74 -26.5 139.5t-72.5 115.5t-110.5 78.5 t-138.5 28.5t-138.5 -29.5t-110.5 -78.5t-72.5 -114.5t-26.5 -139.5t26.5 -139.5t72.5 -114.5t110.5 -78.5t138.5 -29.5t138.5 29.5t110.5 78.5t72.5 114.5t26.5 139.5z" />
<glyph unicode="e" horiz-adv-x="1165" d="M1104 524v-47q0 -25 -4 -49h-846q14 -59 44 -110.5t74 -88t98 -58t118 -21.5q98 0 163.5 43t122.5 118q16 20 34 34.5t46 14.5q37 0 63.5 -25.5t26.5 -62.5q0 -14 -6 -26q-31 -63 -80 -113.5t-110.5 -86.5t-130 -54.5t-135.5 -18.5q-111 0 -205 44t-165 118t-111 171 t-40 206q0 111 40 209t110 171t166 115t209 42q109 0 203 -41t164.5 -113t110.5 -167t40 -204zM913 575q-4 63 -32.5 119t-73.5 95.5t-103.5 62t-119.5 22.5q-63 0 -122 -22.5t-104 -62t-73.5 -95t-30.5 -119.5h659z" />
<glyph unicode="f" horiz-adv-x="659" d="M618 936q0 -37 -26.5 -64.5t-63.5 -27.5h-137v-746q0 -41 -27.5 -68.5t-68.5 -27.5t-69.5 27.5t-28.5 68.5v746h-66q-39 0 -64.5 27.5t-25.5 64.5t26.5 61.5t63.5 24.5h68v51q0 76 28.5 136.5t94.5 101.5q23 14 48 27.5t50 19.5q27 6 55.5 7t54.5 1q37 0 62.5 -24.5 t25.5 -61.5t-26 -63q-25 -25 -58.5 -27t-65.5 -6t-54.5 -25.5t-22.5 -85.5v-51q18 0 36.5 1t37.5 1l63 -2q37 0 63.5 -24.5t26.5 -61.5z" />
<glyph unicode="g" horiz-adv-x="1236" d="M1155 137q0 -129 -39 -229.5t-110.5 -169t-174 -104t-229.5 -35.5q-59 0 -119.5 11t-116 33.5t-102.5 59.5t-84 86q-12 14 -20 29.5t-8 36.5q0 39 27.5 66.5t66.5 27.5q31 0 58.5 -27.5t65.5 -60.5t93 -60.5t141 -27.5q172 0 263 84t96 258q-76 -66 -164 -105t-193 -39 q-113 0 -212 42t-173 115t-117 171t-43 213q0 113 43 211t118 171t174.5 114t211.5 41q113 0 212.5 -42t174 -115t117.5 -171t43 -211v-373zM963 508q0 78 -27 144.5t-74 115.5t-112.5 76.5t-143.5 27.5q-76 0 -140.5 -28.5t-111.5 -77.5t-73.5 -114.5t-26.5 -141.5 q0 -74 26.5 -139.5t74.5 -114.5t111.5 -77.5t137.5 -28.5t139.5 28.5t113.5 77.5t77 113.5t29 138.5z" />
<glyph unicode="h" horiz-adv-x="1091" d="M1010 96q0 -41 -29 -68.5t-68 -27.5t-67.5 27.5t-28.5 68.5v459q0 66 -12 124t-41 101t-78 68.5t-123 25.5q-72 0 -122 -25.5t-82.5 -69.5t-48 -101t-15.5 -121v-461q0 -41 -28.5 -68.5t-67.5 -27.5q-41 0 -69 27.5t-28 68.5v1268q0 39 28 67.5t69 28.5q39 0 67.5 -28.5 t28.5 -67.5v-453q49 76 125 107t164 31q102 0 181 -32t133 -90.5t83 -140t29 -182.5v-508z" />
<glyph unicode="i" horiz-adv-x="419" d="M317 1257q0 -45 -31.5 -76.5t-76.5 -31.5t-76 31.5t-31 76.5t31 76t76 31t76.5 -31t31.5 -76zM305 96q0 -41 -27.5 -68.5t-68.5 -27.5q-39 0 -67.5 27.5t-28.5 68.5v830q0 39 28.5 67.5t67.5 28.5q41 0 68.5 -28.5t27.5 -67.5v-830z" />
<glyph unicode="j" horiz-adv-x="452" d="M350 1262q0 -45 -32.5 -76t-77.5 -31t-76 31t-31 76t31 76.5t76 31.5t77.5 -30.5t32.5 -77.5zM336 2q0 -41 -1 -83t-11 -83q-12 -47 -43 -90t-73 -74.5t-91 -51t-99 -19.5q-43 0 -71.5 29.5t-28.5 70.5q0 37 13.5 56.5t33 28.5t44 13t49 11.5t44 22.5t31.5 48 q4 12 7 31.5t4 41t1 43.5v34v897q0 39 28 66.5t67 27.5q41 0 68.5 -27.5t27.5 -66.5v-926z" />
<glyph unicode="k" horiz-adv-x="905" d="M844 88q0 -39 -30 -64.5t-66 -25.5q-18 0 -36 6t-30 23l-360 473q-8 10 -9 28q0 20 9 31l360 473q12 16 30.5 21.5t37.5 5.5q35 0 64.5 -25.5t29.5 -62.5t-29 -72l-287 -371l287 -370q12 -14 20.5 -32t8.5 -38zM295 96q0 -41 -27.5 -68.5t-68.5 -27.5t-69 27.5t-28 68.5 v1268q0 41 28 68.5t69 27.5t68.5 -27.5t27.5 -68.5v-1268z" />
<glyph unicode="l" horiz-adv-x="397" d="M295 94q0 -39 -28.5 -67.5t-67.5 -28.5q-41 0 -69 28.5t-28 67.5v1268q0 39 28 67.5t69 28.5q39 0 67.5 -28.5t28.5 -67.5v-1268z" />
<glyph unicode="m" horiz-adv-x="1728" d="M1647 96q0 -41 -28 -68.5t-69 -27.5q-39 0 -66.5 27.5t-27.5 68.5v471q0 61 -11 117.5t-39 98.5t-75 66.5t-117 24.5q-72 0 -117.5 -24.5t-74.5 -65.5t-40 -96t-11 -119v-473q0 -41 -29 -68.5t-68 -27.5t-67.5 27.5t-28.5 68.5v471q0 59 -10 114.5t-36.5 98.5t-71 68.5 t-113.5 25.5q-72 0 -120 -23.5t-78 -64.5t-42 -96t-12 -121v-473q0 -41 -28.5 -68.5t-67.5 -27.5q-41 0 -69 27.5t-28 68.5v865q0 37 27 62.5t64 25.5q35 0 62.5 -26t27.5 -62v-50q66 74 130 106t162 32q45 0 93.5 -10.5t91.5 -32t77.5 -54t55.5 -75.5q59 92 145 132t193 40 q203 0 309.5 -118t106.5 -315v-520z" />
<glyph unicode="n" horiz-adv-x="1091" d="M1010 96q0 -41 -29 -68.5t-68 -27.5t-67.5 27.5t-28.5 68.5v459q0 63 -11 121.5t-41 102.5t-79 69.5t-123 25.5q-72 0 -122 -25.5t-83.5 -69.5t-49 -101t-15.5 -121v-461q0 -41 -27.5 -68.5t-66.5 -27.5q-41 0 -69 27.5t-28 68.5v862q0 37 27 64t64 27q35 0 67.5 -26 t32.5 -65v-47q53 61 122.5 99.5t168.5 38.5q205 0 315.5 -122t110.5 -343v-488z" />
<glyph unicode="o" horiz-adv-x="1224" d="M1163 514q0 -115 -44 -213t-119.5 -171t-175 -115t-212.5 -42t-213 42t-174.5 116t-119 173t-44.5 214q0 113 44.5 210t120 168t176 112t210.5 41q113 0 212.5 -41t175 -113t119.5 -169t44 -212zM973 514q0 76 -27.5 141.5t-77 114.5t-115 76.5t-141.5 27.5t-141 -28.5 t-113.5 -77.5t-76 -114.5t-27.5 -141.5q0 -74 27.5 -140.5t76 -115.5t114 -77.5t140.5 -28.5q76 0 141.5 28.5t115 78.5t77 116.5t27.5 140.5z" />
<glyph unicode="p" horiz-adv-x="1220" d="M1159 512q0 -113 -42 -211t-114.5 -171t-170 -115t-209.5 -42q-197 0 -349 127v-440q0 -41 -28.5 -68.5t-67.5 -27.5q-41 0 -68.5 27.5t-27.5 68.5v852q0 113 42 211t115.5 170t172 114t211.5 42t210 -42t169.5 -114t114.5 -170t42 -211zM971 512q0 74 -26.5 139.5 t-73 114.5t-111 78.5t-137.5 29.5q-74 0 -138.5 -29.5t-110.5 -78.5t-73 -114.5t-27 -139.5t27 -139.5t73 -114.5t110.5 -78.5t138.5 -29.5t138 29.5t110.5 78.5t73 114.5t26.5 139.5z" />
<glyph unicode="q" horiz-adv-x="1220" d="M1139 -340q0 -41 -27 -68.5t-65 -27.5q-41 0 -69 27.5t-28 68.5v440q-152 -127 -348 -127q-113 0 -211 42t-172 115t-116 171t-42 211t42 211t116 170t172 114t211 42t210 -42t170 -114t115 -170t42 -211v-852zM950 512q0 74 -26.5 139.5t-72.5 114.5t-110.5 78.5 t-138.5 29.5t-138.5 -29.5t-110.5 -78.5t-72.5 -114.5t-26.5 -139.5t26.5 -139.5t72.5 -114.5t110.5 -78.5t138.5 -29.5t138.5 29.5t110.5 78.5t72.5 114.5t26.5 139.5z" />
<glyph unicode="r" horiz-adv-x="655" d="M614 958q0 -35 -25.5 -60.5t-60.5 -25.5q-74 0 -123 -25.5t-77.5 -68.5t-41 -101.5t-12.5 -123.5v-457q0 -41 -28.5 -68.5t-67.5 -27.5q-41 0 -68.5 27.5t-27.5 68.5v457q0 106 23.5 196.5t73.5 157t131 103.5t198 37q45 0 75.5 -19t30.5 -70z" />
<glyph unicode="s" horiz-adv-x="831" d="M791 301q0 -78 -30 -138.5t-80 -102.5t-116.5 -64.5t-138.5 -22.5q-78 0 -148.5 21.5t-123 63.5t-83 105.5t-30.5 147.5q0 39 27.5 68t68.5 29q39 0 67.5 -29t28.5 -68q0 -41 16.5 -73.5t44.5 -54t62.5 -33t73.5 -11.5q31 0 61.5 10.5t55 31t39 47t14.5 61.5 q0 25 -13.5 45t-34 36.5t-43.5 27.5l-42 20l-84 35.5l-84 35.5l-41 17q-20 8 -39 18q-63 41 -98 96.5t-35 133.5q0 68 30.5 122t80 93t112 59.5t123.5 20.5q63 0 123.5 -16.5t108 -50.5t76 -86t28.5 -122q0 -39 -28.5 -67.5t-67.5 -28.5q-53 0 -68.5 25.5t-21.5 70.5 q-8 57 -57.5 82t-102.5 25q-25 0 -48.5 -8.5t-44 -23.5t-32.5 -36.5t-12 -48.5q0 -25 13 -45.5t32.5 -35.5t42 -27.5t43.5 -20.5l54 -22l71 -27q37 -14 69.5 -29.5t48.5 -26.5q66 -41 99 -96t33 -133z" />
<glyph unicode="t" horiz-adv-x="681" d="M662 932q0 -35 -26 -62.5t-63 -27.5h-137v-746q0 -41 -27.5 -68.5t-66.5 -27.5t-67.5 29.5t-28.5 66.5v746h-135q-37 0 -64 26.5t-27 63.5q0 39 27 64.5t64 25.5h135v246q0 41 28.5 68.5t67.5 27.5q41 0 67.5 -27.5t26.5 -68.5v-246h137q37 0 63 -26.5t26 -63.5z" />
<glyph unicode="u" d="M975 469q0 -115 -24.5 -206t-79 -155.5t-139.5 -99.5t-204 -35q-121 0 -205.5 35t-138 99.5t-78 155.5t-24.5 206v457q0 39 27.5 67.5t68.5 28.5q39 0 67.5 -28.5t28.5 -67.5v-457q0 -66 12.5 -124t41 -101t78 -68.5t122.5 -25.5q74 0 123 25.5t78 68.5t41 101t12 124 v457q0 39 28 67.5t69 28.5q39 0 67.5 -28.5t28.5 -67.5v-457z" />
<glyph unicode="v" horiz-adv-x="911" d="M881 926q0 -23 -7 -35l-329 -832q-25 -59 -88 -59q-68 0 -90 59l-328 832q-8 16 -8 35q0 35 26 67q29 29 70 29q63 0 88 -59l242 -607l239 607q25 59 88 59q39 0 68 -29q29 -32 29 -67z" />
<glyph unicode="w" horiz-adv-x="1708" d="M1626 408q0 -199 -105.5 -317t-310.5 -118q-104 0 -200.5 39t-155.5 131q-59 -92 -155.5 -131t-200.5 -39q-205 0 -310.5 118t-105.5 317v520q0 39 27.5 66.5t68.5 27.5q39 0 67.5 -27.5t28.5 -66.5v-473q0 -61 11.5 -117.5t39 -97.5t73.5 -65.5t116 -24.5t117 23.5 t75.5 65.5t40 97t11.5 117v475q0 39 28.5 66.5t67.5 27.5t67.5 -27.5t28.5 -66.5v-473q0 -61 11.5 -117.5t39 -97.5t74.5 -65.5t119 -24.5q70 0 117 24.5t74.5 65.5t39 97t11.5 118v473q0 39 27.5 66.5t66.5 27.5q41 0 68.5 -27.5t27.5 -66.5v-520z" />
<glyph unicode="x" horiz-adv-x="903" d="M862 92q0 -39 -26.5 -65.5t-67.5 -26.5q-43 0 -70 33l-245 329l-248 -329q-25 -33 -70 -33q-39 0 -66.5 26.5t-27.5 65.5q0 29 20 60l275 372l-258 338q-20 27 -21 64q0 41 28 68.5t69 27.5q45 0 73 -37l226 -299l223 299q27 37 74 37q41 0 68.5 -27.5t27.5 -68.5 q0 -35 -23 -64l-256 -338l275 -372q20 -27 20 -60z" />
<glyph unicode="y" d="M975 469q0 -92 -17.5 -175t-58.5 -147.5t-107.5 -108.5t-166.5 -58v-320q0 -41 -29 -68.5t-68 -27.5q-41 0 -68.5 27.5t-27.5 68.5v320q-100 14 -166.5 58t-107.5 108.5t-58.5 147.5t-17.5 175v457q0 39 27.5 67.5t68.5 28.5q39 0 67.5 -28.5t28.5 -67.5v-457 q0 -66 12.5 -124t41 -101t78 -68.5t122.5 -25.5q74 0 123 25.5t78 68.5t41 101t12 124v457q0 39 28 67.5t69 28.5q39 0 67.5 -28.5t28.5 -67.5v-457z" />
<glyph unicode="z" horiz-adv-x="970" d="M909 86q0 -37 -24.5 -61.5t-61.5 -24.5h-673q-37 0 -63 26.5t-26 63.5q0 29 17 49l571 707h-499q-37 0 -63 25.5t-26 62.5t27 62.5t62 25.5h667q37 0 64.5 -25.5t27.5 -64.5q0 -23 -16 -51.5t-31 -44.5l-540 -662h501q35 0 60.5 -25.5t25.5 -62.5z" />
<glyph unicode="{" horiz-adv-x="829" d="M748 -197q0 -31 -23 -51t-51 -20h-121q-109 0 -180.5 68.5t-71.5 179.5v376q0 72 -49 119t-121 47q-49 0 -49 49v60q0 49 49 49q33 0 63.5 11t54 30.5t38 48.5t14.5 64v376q0 55 19.5 101.5t53.5 79t80 51t99 18.5h121q29 0 51.5 -21.5t22.5 -49.5q0 -31 -23 -54 q-27 -25 -65.5 -22.5t-75.5 -0.5t-63.5 -27.5t-26.5 -104.5v-373q0 -86 -50.5 -134t-132.5 -59q-8 -4 -8 -12q0 -10 8 -12q182 -25 183 -209v-371q0 -53 12 -79.5t31.5 -39t45.5 -12.5h51q26 0 49.5 -4t41.5 -20q23 -23 23 -52z" />
<glyph unicode="|" horiz-adv-x="438" d="M315 -156q0 -41 -28.5 -68.5t-67.5 -27.5q-41 0 -68.5 27.5t-27.5 68.5v1520q0 39 27.5 67.5t68.5 28.5q39 0 67.5 -28.5t28.5 -67.5v-1520z" />
<glyph unicode="}" horiz-adv-x="829" d="M748 571q0 -49 -50 -49q-72 0 -121 -47t-49 -119v-376q0 -111 -71.5 -179.5t-182.5 -68.5h-118q-29 0 -51.5 20.5t-22.5 50.5q0 29 22 52q16 18 41 21t51 3h51q26 0 45 12.5t31.5 39t12.5 79.5v371q0 184 182 209q8 4 8 12t-8 12q-82 10 -132 58.5t-50 134.5v373 q0 80 -26.5 104.5t-63.5 27.5t-76 1t-66 22q-23 23 -22 54q0 29 22.5 50t51.5 21h118q55 0 101.5 -18.5t80 -51t53 -78.5t19.5 -102v-376q0 -35 14.5 -64t38 -48.5t54.5 -30.5t63 -11q49 0 50 -49v-60z" />
<glyph unicode="~" horiz-adv-x="993" d="M932 1391q0 -18 -6 -29.5t-17 -26.5l-47 -59q-23 -29 -47 -50.5t-57 -34.5t-80 -13q-45 0 -93 18t-95.5 42t-92.5 42t-84 18q-33 0 -52 -18t-36.5 -39.5t-36 -40t-47.5 -18.5q-33 0 -56.5 22.5t-23.5 55.5t25 55v2l45 62q23 30 48.5 51.5t58 34t77.5 12.5t92.5 -19.5 t94.5 -42t92 -42t86 -19.5q31 0 51.5 18.5t36.5 40t35.5 39.5t48.5 18q35 0 57.5 -22t22.5 -57z" />
<glyph unicode="&#xa1;" horiz-adv-x="413" d="M303 928q0 -41 -27.5 -69t-68.5 -28t-68.5 28t-27.5 69t27.5 67.5t68.5 26.5t68.5 -26.5t27.5 -67.5zM303 -246q0 -41 -27.5 -67.5t-68.5 -26.5t-68.5 26.5t-27.5 67.5v934q0 41 27.5 67.5t68.5 26.5t68.5 -26.5t27.5 -67.5v-934z" />
<glyph unicode="&#xa2;" horiz-adv-x="1087" d="M985 512q0 -35 -20 -72q-47 -78 -131 -127t-177 -65v-96q0 -41 -26.5 -61.5t-55.5 -20.5q-31 0 -56 20.5t-25 61.5v94q-86 14 -159 57t-124 105.5t-80 143.5t-29 171t29 170t80 142.5t124 105.5t159 57v94q0 39 23.5 60.5t51.5 21.5q33 0 60.5 -19.5t27.5 -62.5v-96 q90 -16 172 -65.5t129 -126.5q10 -16 16.5 -36t6.5 -40q0 -41 -23.5 -67.5t-68.5 -26.5q-41 0 -68 30q-8 10 -12 21.5t-10 21.5q-31 59 -92.5 91t-128.5 32q-68 0 -121.5 -23.5t-90 -65.5t-56 -98.5t-19.5 -119.5q0 -66 19.5 -122t56 -98t90 -65.5t121.5 -23.5 q72 0 129 30.5t92 92.5q16 27 36.5 50t61.5 23q45 0 66.5 -28.5t21.5 -69.5z" />
<glyph unicode="&#xa3;" horiz-adv-x="1097" d="M995 86q0 -35 -25.5 -59.5t-60.5 -24.5h-725q-27 0 -40 18.5t-13 42.5q0 33 22.5 65t55.5 64.5t71.5 66.5t71.5 71t55.5 79t22.5 89h-244q-35 0 -59.5 24.5t-24.5 59.5t25 60.5t59 25.5h154q-35 20 -68.5 67t-48.5 84q-12 35 -20 73t-8 75q0 82 30.5 154.5t85 128t126 88 t153.5 32.5q86 0 159.5 -30.5t129 -85t86 -128t30.5 -159.5q0 -35 -25.5 -60.5t-60.5 -25.5q-41 0 -60.5 22.5t-23.5 63.5q-12 98 -69.5 164.5t-163.5 66.5q-49 0 -91 -19.5t-72 -51t-47 -74.5t-17 -92q0 -51 20.5 -90.5t49 -73t62 -65.5t62.5 -64h234q35 0 60.5 -26 t25.5 -60q0 -35 -26 -59.5t-60 -24.5h-195q0 -61 -12.5 -105.5t-35 -80.5t-55 -68.5t-75.5 -71.5h489q35 0 60.5 -25.5t25.5 -60.5z" />
<glyph unicode="&#xa4;" horiz-adv-x="1730" d="M1628 1087q0 -41 -27.5 -68.5t-68.5 -27.5q-31 0 -53.5 15.5t-38.5 37.5q-92 119 -203 185.5t-264 66.5q-80 0 -155 -21.5t-138.5 -61t-115.5 -95t-87 -123.5h639q35 0 60.5 -25.5t25.5 -60.5t-25.5 -60.5t-60.5 -25.5h-694q-4 -20 -6 -41.5t-2 -44.5q0 -27 3 -52.5 t7 -49.5h569q35 0 60.5 -25.5t25.5 -60.5t-25.5 -60.5t-60.5 -25.5h-508q72 -129 200 -210t288 -81q154 0 264.5 66.5t202.5 185.5q16 23 38.5 39t53.5 16q41 0 67.5 -29.5t26.5 -70.5q0 -27 -8 -45q-45 -84 -116.5 -150.5t-159 -113.5t-182.5 -73t-187 -26 q-121 0 -231.5 37t-203 102.5t-162 155.5t-110.5 197h-119q-35 0 -60.5 25.5t-25.5 60.5t26 60.5t60 25.5h74q-6 49 -6 102q0 23 1 43.5t3 42.5h-72q-35 0 -60.5 25.5t-25.5 60.5t26 60.5t60 25.5h113q39 109 109.5 201t164 158.5t205 103.5t234.5 37q94 0 189 -24.5 t181.5 -71.5t157 -114.5t117.5 -151.5q10 -21 10 -46z" />
<glyph unicode="&#xa5;" horiz-adv-x="1071" d="M1010 379q0 -33 -22.5 -55.5t-55.5 -22.5h-297v-201q0 -41 -30 -70.5t-70 -29.5q-41 0 -70 29.5t-29 70.5v201h-295q-35 0 -57.5 22.5t-22.5 55.5q0 35 22.5 57.5t57.5 22.5h295v33l-53 106h-242q-35 0 -57.5 23.5t-22.5 56.5q0 35 22.5 57.5t57.5 22.5h166l-225 461 q-10 25 -10 43q0 43 29.5 72.5t72.5 29.5q63 0 88 -57l273 -582l274 582q29 57 90 57q41 0 70.5 -29.5t29.5 -72.5q0 -25 -8 -43l-225 -461h166q33 0 55.5 -22.5t22.5 -57.5q0 -33 -22.5 -56.5t-55.5 -23.5h-244l-51 -106h-2v-33h297q33 0 55.5 -22.5t22.5 -57.5z" />
<glyph unicode="&#xa6;" horiz-adv-x="1013" d="M602 862q0 -41 -27.5 -68.5t-68.5 -27.5q-39 0 -66.5 27.5t-27.5 68.5v428q0 41 27.5 68.5t66.5 27.5q41 0 68.5 -27.5t27.5 -68.5v-428zM602 -88q0 -41 -27.5 -68.5t-68.5 -27.5q-39 0 -66.5 27.5t-27.5 68.5v428q0 39 27.5 66.5t66.5 27.5q41 0 68.5 -27.5t27.5 -66.5 v-428z" />
<glyph unicode="&#xa7;" horiz-adv-x="976" d="M895 702q0 -78 -35 -144t-106 -120q35 -43 47 -84t12 -82q0 -68 -30.5 -123t-82 -94t-115 -60.5t-128.5 -21.5q-68 0 -129.5 17.5t-107.5 52.5t-73.5 87t-27.5 122q0 35 21.5 59.5t56.5 24.5q47 0 60 -18.5t24 -63.5q12 -70 67 -101.5t119 -31.5q27 0 56.5 9t54 27.5 t40 44t15.5 58.5q0 45 -27.5 73.5t-66.5 51.5q-20 10 -43 19l-47 20l-126 47q-65 25 -118 61.5t-88 90t-35 133.5q0 78 35 144.5t106 119.5q-35 43 -48 84t-13 82q0 68 31.5 123t82 94t115 60.5t129.5 21.5q68 0 129.5 -17.5t107.5 -52.5t73.5 -87t27.5 -122 q0 -35 -21.5 -59.5t-56.5 -24.5q-47 0 -61 17.5t-23 64.5q-14 70 -68.5 101.5t-117.5 31.5q-29 0 -57.5 -9t-53 -27.5t-40 -44t-15.5 -58.5q0 -45 26.5 -73.5t67.5 -51.5q20 -10 43 -19l47 -20l124 -47q65 -25 119 -61.5t89 -90t35 -133.5zM719 692q0 29 -15.5 52.5t-39 42 t-50 33t-49.5 24.5l-94 39l-100 41q-51 -23 -82 -64t-31 -94q0 -29 15.5 -52.5t38 -42t50 -32.5l50.5 -25l94 -39l100 -40q51 23 82 63.5t31 93.5z" />
<glyph unicode="&#xa8;" horiz-adv-x="667" d="M586 1292q0 -41 -30 -70.5t-71 -29.5t-69.5 29.5t-28.5 70.5t28.5 70t69.5 29t71 -29t30 -70zM281 1292q0 -41 -29 -70.5t-70 -29.5t-70.5 29.5t-29.5 70.5t29.5 70t70.5 29t70 -29t29 -70z" />
<glyph unicode="&#xa9;" horiz-adv-x="1572" d="M1491 682q0 -147 -55.5 -275t-150.5 -223.5t-223 -151t-276 -55.5q-147 0 -275 55.5t-223 151t-150.5 223.5t-55.5 275t55.5 275t150.5 223.5t223 150.5t275 55t275.5 -55t223.5 -150.5t150.5 -223.5t55.5 -275zM1343 682q0 117 -44 220.5t-120.5 179t-179 119.5 t-221.5 44q-117 0 -220 -44t-179 -119.5t-120 -178t-44 -221.5q0 -117 44 -220.5t120 -179t179.5 -119.5t219.5 -44q119 0 221.5 44t179 119.5t120.5 179t44 220.5zM1147 494q0 -27 -21 -58q-59 -88 -145 -130t-190 -42q-90 0 -165 33t-129.5 89t-85 133t-30.5 165t30.5 164 t85 133t129 90t165.5 33q104 0 190 -42t145 -132q20 -27 21 -56q0 -29 -20.5 -48t-49.5 -19q-31 0 -54 24l-53 56q-30 31 -71 55.5t-106 24.5q-61 0 -109.5 -22.5t-82.5 -60.5t-52.5 -90.5t-18.5 -109.5q0 -59 18.5 -110.5t52.5 -90.5t82 -61.5t110 -22.5q66 0 106.5 26 t70.5 55l53 56q24 26 54 25q29 0 49.5 -19t20.5 -48z" />
<glyph unicode="&#xaa;" horiz-adv-x="794" d="M713 909q0 -25 -17.5 -41t-42.5 -16q-23 0 -40 16.5t-17 40.5v37q-35 -59 -89 -84.5t-120 -25.5q-70 0 -129 23.5t-103 66.5t-69 101t-25 128t25 129t69 103.5t103 69t129 24.5q66 0 120 -23.5t89 -79.5v29q0 23 17.5 40t39.5 17q25 0 42.5 -17t17.5 -40v-498zM598 1157 q0 94 -57.5 155.5t-153.5 61.5q-47 0 -85 -17.5t-66.5 -47t-44 -68.5t-15.5 -84q0 -43 16.5 -83t44 -69.5t65.5 -47t83 -17.5q92 0 152.5 62.5t60.5 154.5z" />
<glyph unicode="&#xab;" horiz-adv-x="817" d="M715 250q0 -31 -23 -53q-23 -23 -55 -23q-45 0 -66 37l-157 270q-8 14 -8 37q0 20 10 41l153 266q20 41 68 41q29 0 55 -22q23 -27 23 -56q0 -18 -10 -38l-134 -230l131 -231q13 -19 13 -39zM412 250q0 -31 -23 -53q-23 -23 -55 -23q-45 0 -66 37l-155 270q-10 12 -11 37 q0 20 11 41l155 266q25 41 66 41q29 0 55 -22q23 -27 23 -56q0 -23 -9 -38l-133 -230l133 -231q9 -14 9 -39z" />
<glyph unicode="&#xac;" horiz-adv-x="1095" d="M1030 295q0 -39 -28.5 -67.5t-67.5 -28.5t-67.5 28.5t-28.5 67.5v276h-686q-39 0 -68 29t-29 68t29 67.5t68 28.5h878v-469z" />
<glyph unicode="&#xad;" horiz-adv-x="831" d="M770 537q0 -39 -28.5 -68t-67.5 -29h-516q-41 0 -69 29t-28 68t28 67.5t69 28.5h516q39 0 67.5 -28.5t28.5 -67.5z" />
<glyph unicode="&#xae;" horiz-adv-x="1572" d="M1491 682q0 -147 -55.5 -275t-150.5 -223.5t-223 -151t-276 -55.5q-147 0 -275 55.5t-223 151t-150.5 223.5t-55.5 275t55.5 275t150.5 223.5t223 150.5t275 55t275.5 -55t223.5 -150.5t150.5 -223.5t55.5 -275zM1343 682q0 117 -45 219.5t-121.5 179t-179 120.5 t-219.5 44t-219 -44t-179 -119.5t-121 -179t-44 -220.5t44 -219.5t121 -179t179.5 -120.5t218.5 -44q117 0 219.5 44t179 120.5t121.5 179t45 219.5zM1108 358q0 -29 -20.5 -51t-49.5 -22q-33 0 -51 25.5t-18 47.5v174q0 14 -5.5 31t-15.5 32t-28.5 25.5t-42.5 10.5h-252 v-279q0 -29 -20.5 -48t-49.5 -19t-49.5 19.5t-20.5 47.5v676q0 29 20.5 48.5t49.5 19.5l324 2q49 0 91 -17.5t72.5 -49.5t48 -74t17.5 -89q0 -121 -96 -186q47 -16 71.5 -58t24.5 -92v-174zM971 868q0 47 -35 81t-82 34h-229v-229h229q47 0 82 32.5t35 81.5z" />
<glyph unicode="&#xaf;" horiz-adv-x="720" d="M647 1292q0 -35 -25.5 -60.5t-60.5 -25.5h-403q-35 0 -59.5 25.5t-24.5 60.5t24.5 58.5t59.5 23.5h403q35 0 60.5 -23.5t25.5 -58.5z" />
<glyph unicode="&#xb0;" horiz-adv-x="565" d="M483 1198q0 -86 -58 -143.5t-142 -57.5t-142.5 57.5t-58.5 143.5q0 84 58.5 142.5t142.5 58.5t142 -58.5t58 -142.5zM377 1198q0 39 -26.5 66.5t-67.5 27.5q-39 0 -67 -27.5t-28 -66.5q0 -41 28 -67.5t67 -26.5q41 0 67.5 26.5t26.5 67.5z" />
<glyph unicode="&#xb1;" horiz-adv-x="1134" d="M1032 612q0 -41 -28.5 -68.5t-67.5 -27.5h-272v-272q0 -41 -29 -69t-68 -28q-41 0 -68.5 28t-27.5 69v272h-272q-41 0 -69 27.5t-28 68.5q0 39 28 68t69 29h272v272q0 39 27.5 67.5t68.5 28.5q39 0 68 -28.5t29 -67.5v-272h272q39 0 67.5 -29t28.5 -68zM1032 0 q0 -41 -28.5 -68.5t-67.5 -27.5h-737q-41 0 -69 27.5t-28 68.5t28 68.5t69 27.5h737q39 0 67.5 -27.5t28.5 -68.5z" />
<glyph unicode="&#xb4;" horiz-adv-x="718" d="M629 1464q16 -31 5 -64.5t-42 -49.5l-385 -197q-33 -16 -67 -5t-50 42q-16 33 -4 66.5t43 50.5l385 194q31 16 65 5t50 -42z" />
<glyph unicode="&#xb5;" horiz-adv-x="1118" d="M1016 469q0 -115 -24.5 -206t-78 -155.5t-138.5 -99.5t-206 -35q-70 0 -132 13.5t-122 48.5v-375q0 -41 -27.5 -68.5t-68.5 -27.5t-68.5 27.5t-27.5 68.5v1266q0 41 27.5 68.5t68.5 27.5t68.5 -27.5t27.5 -68.5v-457q0 -68 11.5 -126t40 -101t78 -67.5t124.5 -24.5 q76 0 125 24.5t78 67.5t40 101t11 126v457q0 41 28 68.5t69 27.5t68.5 -27.5t27.5 -68.5v-457z" />
<glyph unicode="&#x3bc;" horiz-adv-x="1118" d="M1016 469q0 -115 -24.5 -206t-78 -155.5t-138.5 -99.5t-206 -35q-70 0 -132 13.5t-122 48.5v-375q0 -41 -27.5 -68.5t-68.5 -27.5t-68.5 27.5t-27.5 68.5v1266q0 41 27.5 68.5t68.5 27.5t68.5 -27.5t27.5 -68.5v-457q0 -68 11.5 -126t40 -101t78 -67.5t124.5 -24.5 q76 0 125 24.5t78 67.5t40 101t11 126v457q0 41 28 68.5t69 27.5t68.5 -27.5t27.5 -68.5v-457z" />
<glyph unicode="&#xb6;" horiz-adv-x="1261" d="M1098 -90q0 -37 -29 -66t-68 -28q-37 0 -65 28q-29 29 -29 66v1337h-198v-1337q0 -37 -29 -66t-68 -28q-37 0 -65 28q-29 29 -29 66v876h-98q-141 0 -240 99q-98 100 -98 237q0 139 100 238q98 100 238 100h581q39 0 68 -28q29 -29 29 -68v-1454z" />
<glyph unicode="&#xb7;" horiz-adv-x="479" d="M369 516q0 -55 -39 -94t-94 -39t-94.5 39t-39.5 94t39 94t95 39q55 0 94 -39t39 -94z" />
<glyph unicode="&#xb8;" horiz-adv-x="581" d="M502 -276q0 -74 -49.5 -126.5t-124.5 -52.5q-72 0 -121 45t-49 117q0 14 10 24.5t25 10.5q16 0 23 -11.5t11 -25.5q6 -41 33 -68.5t68 -27.5q45 0 72.5 33.5t27.5 74.5q0 43 -24.5 81t-77.5 38q-27 0 -41.5 -4t-23.5 -8t-15 -8t-19 -4q-16 0 -26.5 14t0.5 33l82 141h75 l-57 -102q10 2 31 2q76 0 123 -51t47 -125z" />
<glyph unicode="&#xba;" horiz-adv-x="784" d="M723 1159q0 -68 -26.5 -127t-71.5 -102t-105.5 -68.5t-128.5 -25.5t-128 25.5t-104 69.5t-71 103.5t-27 126.5q0 68 27 126.5t72 101.5t105.5 67.5t125.5 24.5q68 0 128.5 -24.5t105.5 -67.5t71.5 -102.5t26.5 -127.5zM608 1159q0 92 -62.5 153.5t-154.5 61.5 q-45 0 -84 -17.5t-68.5 -46t-46 -67.5t-16.5 -84t16.5 -85t46 -69.5t68.5 -47t84 -17.5t85 17.5t68.5 47t46 69.5t17.5 85z" />
<glyph unicode="&#xbb;" horiz-adv-x="817" d="M715 518q0 -20 -10 -37l-156 -270q-25 -37 -68 -37q-33 0 -53 23q-23 20 -22 53q0 18 10 39l133 231l-133 230q-10 20 -10 38q0 33 22 56q23 23 53 22q45 0 70 -41l154 -266q10 -21 10 -41zM412 518q0 -23 -9 -37l-155 -270q-23 -37 -68 -37q-33 0 -55 23q-23 23 -23 53 q0 18 11 39l133 231l-133 230q-10 20 -11 38q0 29 23 56q27 23 55 22q43 0 68 -41l155 -266q9 -16 9 -41z" />
<glyph unicode="&#xbf;" horiz-adv-x="997" d="M606 924q0 -41 -27.5 -69t-68.5 -28t-68.5 28t-27.5 69t27.5 68.5t68.5 27.5t68.5 -27.5t27.5 -68.5zM913 45q0 -98 -35.5 -179t-113.5 -142q-117 -94 -264 -95q-84 0 -159 33t-130 89t-87 132t-32 160q0 57 10.5 101t32 81t51 70t70.5 70l71 68q42 40 60 75 q14 29 18.5 61.5t6.5 64.5t7 58.5t23 44.5q27 27 68 27t68.5 -26.5t27.5 -67.5q0 -72 -14 -141.5t-51 -129.5q-20 -33 -52 -64l-63 -64l-64 -62q-31 -31 -51 -64q-27 -41 -26 -96q0 -47 16 -88t45 -71.5t69 -48t87 -17.5q113 0 182 98q16 25 23.5 51.5t11.5 53t9 48t22 38.5 q27 27 69 26q41 0 67.5 -26.5t26.5 -67.5z" />
<glyph unicode="&#xc0;" horiz-adv-x="1304" d="M948 1573q-16 -31 -50 -42t-64 5l-385 197q-33 16 -44.5 50t5.5 64q16 31 50 42.5t66 -5.5l385 -196q31 -16 42 -50t-5 -65zM1284 98q0 -41 -28.5 -69.5t-69.5 -28.5q-31 0 -57.5 17.5t-36.5 45.5l-121 306h-635l-123 -306q-10 -29 -35.5 -46t-56.5 -17q-41 0 -71 29.5 t-30 70.5q0 18 9 33l530 1258q14 35 35.5 52t58.5 17t58.5 -18.5t36.5 -50.5l530 -1258q6 -17 6 -35zM655 1165l-252 -626h500z" />
<glyph unicode="&#xc1;" horiz-adv-x="1304" d="M930 1847q16 -31 5 -64.5t-42 -49.5l-385 -197q-31 -16 -64.5 -5t-50.5 42q-16 31 -5 64.5t42 50.5l385 196q31 16 65 5t50 -42zM1284 98q0 -41 -28.5 -69.5t-69.5 -28.5q-31 0 -57.5 17.5t-36.5 45.5l-121 306h-635l-123 -306q-10 -29 -35.5 -46t-56.5 -17 q-41 0 -71 29.5t-30 70.5q0 18 9 33l530 1258q14 35 35.5 52t58.5 17t58.5 -18.5t36.5 -50.5l530 -1258q6 -17 6 -35zM655 1165l-252 -626h500z" />
<glyph unicode="&#xc2;" horiz-adv-x="1304" d="M944 1612q0 -33 -23.5 -54.5t-54.5 -21.5q-33 0 -55 23l-158 159l-161 -159q-23 -23 -56 -23t-54.5 22.5t-21.5 55.5t21 53l217 215q23 23 55 23q31 0 54 -23l215 -215q22 -22 22 -55zM1284 98q0 -41 -28.5 -69.5t-69.5 -28.5q-31 0 -57.5 17.5t-36.5 45.5l-121 306h-635 l-123 -306q-10 -29 -35.5 -46t-56.5 -17q-41 0 -71 29.5t-30 70.5q0 18 9 33l530 1258q14 33 35.5 51t58.5 18q35 0 57.5 -18.5t37.5 -50.5l530 -1258q6 -19 6 -35zM655 1165l-252 -626h500z" />
<glyph unicode="&#xc3;" horiz-adv-x="1304" d="M1018 1673q0 -31 -19.5 -55.5t-48 -43t-60.5 -28.5t-59 -10q-43 0 -84.5 17.5l-82.5 36.5l-81 37q-40 17 -79 18q-20 0 -33.5 -8.5t-25 -17.5t-23.5 -16.5t-31 -7.5q-31 0 -51.5 22.5t-20.5 51.5t19.5 53.5t48.5 43t60.5 28.5t58.5 10q43 0 86 -17.5t84 -37.5t81 -37.5 t77 -17.5q20 0 32.5 8t22.5 17.5t22.5 17.5t34.5 8q29 0 50.5 -21.5t21.5 -50.5zM1284 98q0 -41 -28.5 -69.5t-69.5 -28.5q-31 0 -57.5 17.5t-36.5 45.5l-121 306h-635l-123 -306q-10 -29 -35.5 -46t-56.5 -17q-41 0 -71 29.5t-30 70.5q0 18 9 33l530 1258q14 35 35.5 52 t58.5 17t58.5 -18.5t36.5 -50.5l530 -1258q6 -17 6 -35zM655 1165l-252 -626h500z" />
<glyph unicode="&#xc4;" horiz-adv-x="1304" d="M901 1640q0 -41 -29.5 -69.5t-70.5 -28.5t-71 28.5t-30 69.5t30 71t71 30t70.5 -30t29.5 -71zM596 1640q0 -41 -29.5 -69.5t-70.5 -28.5t-70 28.5t-29 69.5t29 71t70 30t70.5 -30t29.5 -71zM1284 98q0 -41 -28.5 -69.5t-69.5 -28.5q-31 0 -57.5 17.5t-36.5 45.5l-121 306 h-635l-123 -306q-10 -29 -35.5 -46t-56.5 -17q-41 0 -71 29.5t-30 70.5q0 18 9 33l530 1258q14 35 35.5 52t58.5 17t58.5 -18.5t36.5 -50.5l530 -1258q6 -17 6 -35zM655 1165l-252 -626h500z" />
<glyph unicode="&#xc5;" horiz-adv-x="1304" d="M813 1681q0 -66 -47 -112.5t-113 -46.5q-68 0 -114.5 47t-46.5 112q0 68 46 115t115 47q68 0 114 -47t46 -115zM1284 98q0 -41 -28.5 -69.5t-69.5 -28.5q-31 0 -57.5 17.5t-36.5 45.5l-121 306h-635l-123 -306q-10 -29 -35.5 -46t-56.5 -17q-41 0 -71 29.5t-30 70.5 q0 18 9 33l530 1258q14 35 35.5 52t58.5 17t58.5 -18.5t36.5 -50.5l530 -1258q6 -17 6 -35zM752 1681q0 41 -29 71t-70 30q-43 0 -71.5 -30t-28.5 -71t29.5 -70.5t70.5 -29.5t70 29.5t29 70.5zM655 1165l-252 -626h500z" />
<glyph unicode="&#xc6;" horiz-adv-x="1679" d="M1597 86q0 -35 -24.5 -60.5t-59.5 -25.5h-589q-41 0 -70 28.5t-29 69.5v271h-407l-185 -306q-23 -35 -55.5 -53t-73.5 -4q-29 10 -46 35t-17 55q0 10 3 22.5t22 43.5l745 1229l15 24q5 8 16 17q10 10 21 16t22 10q10 4 20 2h39h569q35 0 59.5 -24.5t24.5 -61.5 q0 -35 -24.5 -60.5t-59.5 -25.5h-489v-461h489q35 0 59.5 -25.5t24.5 -60.5t-24.5 -60.5t-59.5 -25.5h-489v-483h489q35 0 59.5 -25.5t24.5 -60.5zM825 1061l-301 -522h301v522z" />
<glyph unicode="&#xc7;" horiz-adv-x="1536" d="M1475 1087q0 -41 -28 -68.5t-69 -27.5q-31 0 -53 15.5t-39 37.5q-92 119 -202.5 185.5t-264.5 66.5q-115 0 -217 -44t-178 -119.5t-120 -178t-44 -217.5q0 -117 44 -219t119 -179t177 -122t219 -45q154 0 264.5 66.5t202.5 185.5q16 23 39 39t53 16q41 0 68 -29.5 t27 -70.5q0 -27 -9 -45q-43 -80 -109.5 -143.5t-146.5 -110.5t-169 -73.5t-177 -33.5l-45 -75q10 2 33 2q76 0 122 -51.5t46 -124.5q0 -74 -49 -126.5t-123 -52.5q-72 0 -121 45t-49 117q0 14 9 24.5t24 10.5q16 0 24 -11.5t10 -25.5q6 -41 34 -68.5t69 -27.5 q43 0 70.5 33.5t27.5 74.5q0 43 -23.5 81t-76.5 38q-27 0 -41.5 -4t-23.5 -8t-16 -8t-20 -4q-16 0 -26 14t0 33l67 114q-152 6 -283.5 69.5t-229 167t-154 239t-56.5 288.5q0 156 59.5 294t163 241.5t241 163t294.5 59.5q94 0 189.5 -24.5t181.5 -71.5t156.5 -114.5 t117.5 -151.5q11 -21 11 -46z" />
<glyph unicode="&#xc8;" horiz-adv-x="956" d="M809 1573q-16 -31 -50 -42t-65 5l-385 197q-33 16 -44 50t5 64q16 31 50 42.5t67 -5.5l385 -196q31 -16 42 -50t-5 -65zM895 86q0 -35 -24.5 -60.5t-59.5 -25.5h-590q-41 0 -69.5 28.5t-28.5 69.5v1262q0 41 29.5 70.5t70.5 29.5h588q35 0 59.5 -25.5t24.5 -60.5 t-24.5 -60.5t-59.5 -25.5h-492v-461h492q35 0 59.5 -25.5t24.5 -60.5t-24.5 -60.5t-59.5 -25.5h-492v-483h492q35 0 59.5 -25.5t24.5 -60.5z" />
<glyph unicode="&#xc9;" horiz-adv-x="956" d="M827 1847q16 -31 5 -64.5t-41 -49.5l-385 -197q-31 -16 -65 -5t-50 42t-5 64.5t42 50.5l385 196q31 16 64.5 5t49.5 -42zM895 86q0 -35 -24.5 -60.5t-59.5 -25.5h-590q-41 0 -69.5 28.5t-28.5 69.5v1262q0 41 29.5 70.5t70.5 29.5h588q35 0 59.5 -25.5t24.5 -60.5 t-24.5 -60.5t-59.5 -25.5h-492v-461h492q35 0 59.5 -25.5t24.5 -60.5t-24.5 -60.5t-59.5 -25.5h-492v-483h492q35 0 59.5 -25.5t24.5 -60.5z" />
<glyph unicode="&#xca;" horiz-adv-x="956" d="M860 1612q0 -33 -22.5 -54.5t-55.5 -21.5q-29 0 -55 23l-158 159l-159 -159q-27 -23 -56 -23q-33 0 -55.5 22.5t-22.5 55.5q0 31 23 53l215 215q23 23 55 23q31 0 54 -23l215 -215q22 -20 22 -55zM895 86q0 -35 -24.5 -60.5t-59.5 -25.5h-590q-41 0 -69.5 28.5 t-28.5 69.5v1262q0 41 29.5 70.5t70.5 29.5h588q35 0 59.5 -25.5t24.5 -60.5t-24.5 -60.5t-59.5 -25.5h-492v-461h492q35 0 59.5 -25.5t24.5 -60.5t-24.5 -60.5t-59.5 -25.5h-492v-483h492q35 0 59.5 -25.5t24.5 -60.5z" />
<glyph unicode="&#xcb;" horiz-adv-x="956" d="M774 1640q0 -41 -28.5 -69.5t-69.5 -28.5t-71 28.5t-30 69.5t30 71t71 30t69.5 -30t28.5 -71zM471 1640q0 -41 -29.5 -69.5t-70.5 -28.5t-71 28.5t-30 69.5t30 71t71 30t70.5 -30t29.5 -71zM895 86q0 -35 -24.5 -60.5t-59.5 -25.5h-590q-41 0 -69.5 28.5t-28.5 69.5v1262 q0 41 29.5 70.5t70.5 29.5h588q35 0 59.5 -25.5t24.5 -60.5t-24.5 -60.5t-59.5 -25.5h-492v-461h492q35 0 59.5 -25.5t24.5 -60.5t-24.5 -60.5t-59.5 -25.5h-492v-483h492q35 0 59.5 -25.5t24.5 -60.5z" />
<glyph unicode="&#xcc;" horiz-adv-x="483" d="M535 1573q-16 -31 -50 -42t-65 5l-385 197q-31 16 -42 50t5 64q16 31 50 42.5t65 -5.5l385 -196q31 -16 42 -50t-5 -65zM340 98q0 -41 -28.5 -69.5t-69.5 -28.5t-70 28.5t-29 69.5v1264q0 41 29 69.5t70 28.5t69.5 -28.5t28.5 -69.5v-1264z" />
<glyph unicode="&#xcd;" horiz-adv-x="483" d="M512 1847q16 -31 5 -64.5t-42 -49.5l-385 -197q-31 -16 -64.5 -5t-50.5 42q-16 31 -4.5 64.5t41.5 50.5l385 196q31 16 65 5t50 -42zM340 98q0 -41 -28.5 -69.5t-69.5 -28.5t-70 28.5t-29 69.5v1264q0 41 29 69.5t70 28.5t69.5 -28.5t28.5 -69.5v-1264z" />
<glyph unicode="&#xce;" horiz-adv-x="483" d="M526 1612q0 -33 -22.5 -54.5t-54.5 -21.5q-29 0 -56 23l-157 159l-160 -159q-27 -23 -56 -23q-33 0 -55 22.5t-22 55.5q0 31 22 53l215 215q23 23 56 23q31 0 53 -23l215 -215q22 -20 22 -55zM340 98q0 -41 -28.5 -69.5t-69.5 -28.5t-70 28.5t-29 69.5v1264q0 41 29 69.5 t70 28.5t69.5 -28.5t28.5 -69.5v-1264z" />
<glyph unicode="&#xcf;" horiz-adv-x="483" d="M496 1661q0 -41 -29 -69.5t-70 -28.5t-70.5 28.5t-29.5 69.5t29.5 70.5t70.5 29.5t70 -29.5t29 -70.5zM193 1661q0 -41 -30 -69.5t-71 -28.5t-70.5 28.5t-29.5 69.5t29.5 70.5t70.5 29.5t71 -29.5t30 -70.5zM340 98q0 -41 -28.5 -69.5t-69.5 -28.5t-70 28.5t-29 69.5 v1264q0 41 29 69.5t70 28.5t69.5 -28.5t28.5 -69.5v-1264z" />
<glyph unicode="&#xd0;" horiz-adv-x="1482" d="M1421 725q0 -119 -33.5 -230.5t-97 -203.5t-157 -160t-209.5 -100q-72 -20 -148 -25.5t-149 -5.5h-332q-37 0 -63.5 26.5t-26.5 63.5v537h-68q-41 0 -68.5 27.5t-27.5 68.5q0 39 27.5 67.5t68.5 28.5h68v551q0 37 27.5 63.5t64.5 26.5h391q166 0 301 -52t231.5 -149.5 t148.5 -232.5t52 -301zM1237 723q0 137 -43 243.5t-121 179.5t-188.5 109.5t-245.5 36.5h-236v-473h250q39 0 68 -28.5t29 -67.5q0 -41 -29 -68.5t-68 -27.5h-250v-463h277q129 0 232.5 39t175 111.5t110.5 176t39 232.5z" />
<glyph unicode="&#xd1;" horiz-adv-x="1443" d="M1085 1673q0 -31 -19 -55.5t-48 -43t-60.5 -28.5t-58.5 -10q-43 0 -85 17.5t-83 36.5l-81 37q-40 17 -79 18q-20 0 -33.5 -8.5t-24.5 -17.5t-23.5 -16.5t-30.5 -7.5q-31 0 -51.5 22.5t-20.5 51.5t19.5 53.5t48 43t60.5 28.5t58 10q43 0 86 -17.5t84 -37.5t81 -37.5 t77 -17.5q20 0 32.5 8t23 17.5t22.5 17.5t35 8q29 0 50 -21.5t21 -50.5zM1321 137q0 -55 -41 -96t-96 -41q-43 0 -78 23.5t-59 58.5l-728 1077v-1063q0 -41 -30.5 -68.5t-69.5 -27.5q-41 0 -68.5 27.5t-27.5 68.5v1225q0 55 41 96t96 41q43 0 78 -23.5t59 -58.5l727 -1077 v1063q0 41 31 68.5t70 27.5q41 0 68.5 -28.5t27.5 -67.5v-1225z" />
<glyph unicode="&#xd2;" horiz-adv-x="1683" d="M1130 1573q-16 -31 -49.5 -42t-64.5 5l-385 197q-33 16 -44.5 50t5.5 64q16 31 50 42.5t67 -5.5l385 -196q31 -16 41.5 -50t-5.5 -65zM1622 737q0 -160 -62.5 -300t-169 -243.5t-248 -163t-298.5 -59.5q-160 0 -302.5 60.5t-249 165t-169 245t-62.5 301.5 q0 160 63.5 297.5t171 238.5t249 158.5t299.5 57.5t299 -58.5t247.5 -160.5t169 -240.5t62.5 -298.5zM1427 737q0 119 -47 223.5t-126.5 180.5t-186 120t-223.5 44t-223.5 -43t-187.5 -119t-129 -179.5t-48 -222.5q0 -121 47 -226t127 -183t186.5 -123t227.5 -45 q119 0 224.5 44t185 122t126.5 182t47 225z" />
<glyph unicode="&#xd3;" horiz-adv-x="1683" d="M1094 1868q16 -31 4.5 -65t-41.5 -50l-385 -197q-31 -16 -65 -4.5t-50 41.5q-16 31 -5 65t42 50l385 197q31 16 65 5t50 -42zM1622 737q0 -160 -62.5 -300t-169 -243.5t-248 -163t-298.5 -59.5q-160 0 -302.5 60.5t-249 165t-169 245t-62.5 301.5q0 160 63.5 297.5 t171 238.5t249 158.5t299.5 57.5t299 -58.5t247.5 -160.5t169 -240.5t62.5 -298.5zM1427 737q0 119 -47 223.5t-126.5 180.5t-186 120t-223.5 44t-223.5 -43t-187.5 -119t-129 -179.5t-48 -222.5q0 -121 47 -226t127 -183t186.5 -123t227.5 -45q119 0 224.5 44t185 122 t126.5 182t47 225z" />
<glyph unicode="&#xd4;" horiz-adv-x="1683" d="M1135 1612q0 -33 -24 -54.5t-54 -21.5q-33 0 -56 23l-157 159l-162 -159q-23 -23 -55 -23q-33 0 -54.5 22.5t-21.5 55.5t20 53l217 215q23 23 56 23q31 0 53 -23l215 -215q23 -22 23 -55zM1622 737q0 -160 -62.5 -300t-169 -243.5t-248 -163t-298.5 -59.5 q-160 0 -302.5 60.5t-249 165t-169 245t-62.5 301.5q0 160 63.5 297.5t171 238.5t249 158.5t299.5 57.5t299 -58.5t247.5 -160.5t169 -240.5t62.5 -298.5zM1427 737q0 119 -47 223.5t-126.5 180.5t-186 120t-223.5 44t-223.5 -43t-187.5 -119t-129 -179.5t-48 -222.5 q0 -121 47 -226t127 -183t186.5 -123t227.5 -45q119 0 224.5 44t185 122t126.5 182t47 225z" />
<glyph unicode="&#xd5;" horiz-adv-x="1683" d="M1208 1694q0 -31 -19.5 -55.5t-48 -43t-60 -29t-58.5 -10.5q-43 0 -85 17.5t-83 37.5l-81 37q-40 17 -79 17q-20 0 -33.5 -8t-24.5 -17.5t-23.5 -16.5t-30.5 -7q-31 0 -51.5 22.5t-20.5 51.5t19.5 53t48 42.5t60.5 29t58 10.5q43 0 86 -17.5t84 -38t81 -38t77 -17.5 q20 0 32.5 8.5t23 17.5t22.5 17t35 8q29 0 50 -21t21 -50zM1622 737q0 -160 -62.5 -300t-169 -243.5t-248 -163t-298.5 -59.5q-160 0 -302.5 60.5t-249 165t-169 245t-62.5 301.5q0 160 63.5 297.5t171 238.5t249 158.5t299.5 57.5t299 -58.5t247.5 -160.5t169 -240.5 t62.5 -298.5zM1427 737q0 119 -47 223.5t-126.5 180.5t-186 120t-223.5 44t-223.5 -43t-187.5 -119t-129 -179.5t-48 -222.5q0 -121 47 -226t127 -183t186.5 -123t227.5 -45q119 0 224.5 44t185 122t126.5 182t47 225z" />
<glyph unicode="&#xd6;" horiz-adv-x="1683" d="M1094 1661q0 -41 -30 -69.5t-71 -28.5t-70.5 28.5t-29.5 69.5t29.5 70.5t70.5 29.5t71 -29.5t30 -70.5zM788 1661q0 -41 -29.5 -69.5t-70.5 -28.5t-69.5 28.5t-28.5 69.5t28.5 70.5t69.5 29.5t70.5 -29.5t29.5 -70.5zM1622 737q0 -160 -62.5 -300t-169 -243.5t-248 -163 t-298.5 -59.5q-160 0 -302.5 60.5t-249 165t-169 245t-62.5 301.5q0 160 63.5 297.5t171 238.5t249 158.5t299.5 57.5t299 -58.5t247.5 -160.5t169 -240.5t62.5 -298.5zM1427 737q0 119 -47 223.5t-126.5 180.5t-186 120t-223.5 44t-223.5 -43t-187.5 -119t-129 -179.5 t-48 -222.5q0 -121 47 -226t127 -183t186.5 -123t227.5 -45q119 0 224.5 44t185 122t126.5 182t47 225z" />
<glyph unicode="&#xd7;" horiz-adv-x="1040" d="M879 727q0 -39 -29 -68l-199 -190l195 -197q29 -29 28 -67q0 -39 -28 -68q-29 -29 -69 -28.5t-68 28.5l-191 195l-192 -195q-29 -29 -68 -28.5t-68 28.5q-29 29 -28 68q0 39 28 67l195 197l-195 190q-29 27 -28 68q0 41 28 70q29 29 68 28.5t68 -28.5l196 -197l191 197 q29 29 68.5 28.5t68.5 -28.5q29 -29 29 -70z" />
<glyph unicode="&#xd8;" horiz-adv-x="1724" d="M1642 737q0 -160 -62 -300t-168.5 -243.5t-248 -163t-299.5 -59.5q-98 0 -189 23.5t-175 66.5l-94 -135q-27 -37 -64 -40t-65.5 17.5t-39 56.5t16.5 73l94 131q-123 106 -194.5 255.5t-71.5 323.5q0 160 63.5 297.5t171 238.5t249 158.5t298.5 57.5q98 0 189.5 -23.5 t175.5 -64.5l90 127q27 37 63.5 39t65.5 -17.5t39 -55.5t-17 -73l-88 -124q119 -104 189.5 -249t70.5 -317zM1448 737q0 123 -48 226.5t-130 181.5l-658 -926q59 -27 122 -41t130 -14q119 0 225.5 44t186.5 122t126 182t46 225zM1116 1249q-57 27 -120.5 41.5t-131.5 14.5 q-117 0 -223 -43t-187 -119t-129.5 -179.5t-48.5 -222.5q0 -125 49.5 -232.5t135.5 -184.5z" />
<glyph unicode="&#xd9;" horiz-adv-x="1327" d="M948 1573q-16 -31 -50 -42t-64 5l-385 197q-33 16 -44.5 50t5.5 64q16 31 50 42.5t66 -5.5l385 -196q31 -16 42 -50t-5 -65zM1225 651q0 -74 -7.5 -148.5t-27 -144t-55 -133t-93.5 -114.5q-78 -70 -176 -105t-202 -35q-102 0 -202 35t-177 105q-57 51 -93 114.5 t-55.5 134t-27 144.5t-7.5 147v705q0 41 31 72.5t72 31.5t72.5 -31.5t31.5 -72.5v-705q0 -92 13.5 -181t52.5 -158.5t108.5 -112.5t180.5 -43q113 0 181 43t107 112.5t52.5 158.5t13.5 181v705q0 41 31.5 72.5t72.5 31.5t72 -31.5t31 -72.5v-705z" />
<glyph unicode="&#xda;" horiz-adv-x="1327" d="M930 1847q16 -31 5 -64.5t-42 -49.5l-385 -197q-31 -16 -64.5 -5t-50.5 42q-16 31 -5 64.5t42 50.5l385 196q31 16 65 5t50 -42zM1225 651q0 -74 -7.5 -148.5t-27 -144t-55 -133t-93.5 -114.5q-78 -70 -176 -105t-202 -35q-102 0 -202 35t-177 105q-57 51 -93 114.5 t-55.5 134t-27 144.5t-7.5 147v705q0 41 31 72.5t72 31.5t72.5 -31.5t31.5 -72.5v-705q0 -92 13.5 -181t52.5 -158.5t108.5 -112.5t180.5 -43q113 0 181 43t107 112.5t52.5 158.5t13.5 181v705q0 41 31.5 72.5t72.5 31.5t72 -31.5t31 -72.5v-705z" />
<glyph unicode="&#xdb;" horiz-adv-x="1327" d="M948 1612q0 -33 -23.5 -54.5t-54.5 -21.5q-33 0 -55 23l-158 159l-161 -159q-23 -23 -56 -23t-54 22.5t-21 55.5t20 53l217 215q23 23 55 23q31 0 54 -23l215 -215q22 -22 22 -55zM1225 651q0 -74 -7.5 -148.5t-27 -144t-55 -133t-93.5 -114.5q-78 -70 -176 -105 t-202 -35q-102 0 -202 35t-177 105q-57 51 -93 114.5t-55.5 134t-27 144.5t-7.5 147v705q0 41 31 72.5t72 31.5t72.5 -31.5t31.5 -72.5v-705q0 -92 13.5 -181t52.5 -158.5t108.5 -112.5t180.5 -43q113 0 181 43t107 112.5t52.5 158.5t13.5 181v705q0 41 31.5 72.5t72.5 31.5 t72 -31.5t31 -72.5v-705z" />
<glyph unicode="&#xdc;" horiz-adv-x="1327" d="M911 1640q0 -41 -29.5 -69.5t-70.5 -28.5t-70.5 28.5t-29.5 69.5t29.5 71t70.5 30t70.5 -30t29.5 -71zM606 1640q0 -41 -29.5 -69.5t-70.5 -28.5t-69.5 28.5t-28.5 69.5t28.5 71t69.5 30t70.5 -30t29.5 -71zM1225 651q0 -74 -7.5 -148.5t-27 -144t-55 -133t-93.5 -114.5 q-78 -70 -176 -105t-202 -35q-102 0 -202 35t-177 105q-57 51 -93 114.5t-55.5 134t-27 144.5t-7.5 147v705q0 41 31 72.5t72 31.5t72.5 -31.5t31.5 -72.5v-705q0 -92 13.5 -181t52.5 -158.5t108.5 -112.5t180.5 -43q113 0 181 43t107 112.5t52.5 158.5t13.5 181v705 q0 41 31.5 72.5t72.5 31.5t72 -31.5t31 -72.5v-705z" />
<glyph unicode="&#xdd;" d="M827 1847q16 -31 5 -64.5t-41 -49.5l-385 -197q-31 -16 -65 -5t-50 42t-5 64.5t42 50.5l385 196q31 16 64.5 5t49.5 -42zM1036 1360q0 -10 -2 -21.5t-8 -21.5l-397 -825v-392q0 -41 -30 -70.5t-71 -29.5t-69.5 29.5t-28.5 70.5v392l-399 825q-10 20 -11 43q0 41 30 70.5 t71 29.5q63 0 90 -55l317 -680l318 680q12 27 37.5 41t54.5 14q41 0 69.5 -29.5t28.5 -70.5z" />
<glyph unicode="&#xde;" horiz-adv-x="983" d="M256 96q0 -41 -27.5 -68.5t-68.5 -27.5q-39 0 -68 27.5t-29 68.5v1268q0 41 29 68.5t68 27.5q41 0 68.5 -27.5t27.5 -68.5v-195h168q113 0 205 -24.5t155.5 -77.5t98.5 -138t35 -206t-35 -206t-98.5 -138t-155.5 -78t-205 -25h-168v-180zM743 723q0 76 -24.5 125 t-67.5 77.5t-101 40t-126 11.5h-168v-508h168q68 0 126 11.5t101 40t67.5 77.5t24.5 125z" />
<glyph unicode="&#xdf;" horiz-adv-x="1214" d="M1153 401q0 -213 -124 -319.5t-327 -106.5q-49 0 -104 10.5t-105.5 32t-93.5 55t-67 79.5q-25 45 -33 96l-6 -2v-152q0 -39 -28.5 -66.5t-67.5 -27.5t-67 27.5t-28 66.5v879q0 98 35 175t96.5 129t143.5 79.5t176 27.5q86 0 163 -27.5t135 -79.5t93 -125t35 -161 q0 -70 -24.5 -132t-71.5 -114q119 -33 194.5 -125t75.5 -219zM961 381q0 49 -18.5 89t-50.5 68.5t-74 44t-89 15.5t-89 -17.5t-89 -17.5q-37 0 -63.5 23.5t-26.5 62.5t17.5 58.5t51.5 29.5q49 14 96.5 30.5t83 42.5t57 65.5t21.5 103.5q0 47 -19 89t-51 74t-75 50t-90 18 q-51 0 -98 -18t-83 -50t-57.5 -77t-21.5 -100v-631q2 35 27.5 61.5t60.5 26.5q43 0 61.5 -16.5t26.5 -42t12 -55t19 -54.5q31 -55 82 -84t116 -29q51 0 99.5 16.5t84.5 48.5t57.5 76t21.5 99z" />
<glyph unicode="&#xe0;" horiz-adv-x="1247" d="M887 1190q-16 -31 -50 -42t-65 5l-385 197q-33 16 -44 50t5 64q16 31 50 42.5t67 -5.5l385 -194q31 -16 42 -50t-5 -67zM1145 96q0 -41 -27.5 -68.5t-68.5 -27.5q-39 0 -67 27.5t-28 68.5v62q-59 -98 -149 -141.5t-201 -43.5q-115 0 -214 40t-172 111t-115 169t-42 213 q0 117 41 217t114 172t172 113t216 41q106 0 197.5 -40t152.5 -132v49q0 41 28 68.5t67 27.5q41 0 68.5 -27.5t27.5 -68.5v-830zM956 508q0 78 -25.5 145.5t-71.5 116.5t-110.5 76.5t-144.5 27.5q-76 0 -140.5 -29.5t-110.5 -79.5t-72.5 -116.5t-26.5 -140.5 q0 -72 26.5 -137.5t72.5 -114.5t110.5 -77.5t138.5 -28.5q76 0 140.5 27.5t111.5 76.5t74.5 114.5t27.5 139.5z" />
<glyph unicode="&#xe1;" horiz-adv-x="1247" d="M879 1464q16 -31 4.5 -64.5t-41.5 -49.5l-385 -197q-31 -16 -65 -5t-50 42q-16 33 -5 66.5t42 50.5l385 194q31 16 65 5t50 -42zM1145 96q0 -41 -27.5 -68.5t-68.5 -27.5q-39 0 -67 27.5t-28 68.5v62q-59 -98 -149 -141.5t-201 -43.5q-115 0 -214 40t-172 111t-115 169 t-42 213q0 117 41 217t114 172t172 113t216 41q106 0 197.5 -40t152.5 -132v49q0 41 28 68.5t67 27.5q41 0 68.5 -27.5t27.5 -68.5v-830zM956 508q0 78 -25.5 145.5t-71.5 116.5t-110.5 76.5t-144.5 27.5q-76 0 -140.5 -29.5t-110.5 -79.5t-72.5 -116.5t-26.5 -140.5 q0 -72 26.5 -137.5t72.5 -114.5t110.5 -77.5t138.5 -28.5q76 0 140.5 27.5t111.5 76.5t74.5 114.5t27.5 139.5z" />
<glyph unicode="&#xe2;" horiz-adv-x="1247" d="M889 1202q0 -33 -23.5 -54.5t-54.5 -21.5q-35 0 -55 23l-158 160l-162 -160q-20 -23 -55 -23q-33 0 -54.5 22.5t-21.5 55.5t21 53l217 216q23 23 55 22q31 0 53 -22l215 -216q23 -22 23 -55zM1145 96q0 -41 -27.5 -68.5t-68.5 -27.5q-39 0 -67 27.5t-28 68.5v62 q-59 -98 -149 -141.5t-201 -43.5q-115 0 -214 40t-172 111t-115 169t-42 213q0 117 41 217t114 172t172 113t216 41q106 0 197.5 -40t152.5 -132v49q0 41 28 68.5t67 27.5q41 0 68.5 -27.5t27.5 -68.5v-830zM956 508q0 78 -25.5 145.5t-71.5 116.5t-110.5 76.5t-144.5 27.5 q-76 0 -140.5 -29.5t-110.5 -79.5t-72.5 -116.5t-26.5 -140.5q0 -72 26.5 -137.5t72.5 -114.5t110.5 -77.5t138.5 -28.5q76 0 140.5 27.5t111.5 76.5t74.5 114.5t27.5 139.5z" />
<glyph unicode="&#xe3;" horiz-adv-x="1247" d="M969 1317q0 -31 -19.5 -55.5t-47.5 -43t-60.5 -28.5t-57.5 -10q-43 0 -86 17t-84 37l-80 37q-40 17 -79 17q-18 0 -31.5 -8t-25 -17.5t-25 -16.5t-31.5 -7q-29 0 -50.5 22.5t-21.5 51.5t19.5 54.5t48.5 44t61.5 28.5t57.5 10q43 0 86 -17.5t85 -37.5l81 -38 q39 -17 75 -18q20 0 32.5 7.5t23 16.5t22.5 17.5t35 8.5q31 0 51.5 -21.5t20.5 -50.5zM1145 96q0 -41 -27.5 -68.5t-68.5 -27.5q-39 0 -67 27.5t-28 68.5v62q-59 -98 -149 -141.5t-201 -43.5q-115 0 -214 40t-172 111t-115 169t-42 213q0 117 41 217t114 172t172 113t216 41 q106 0 197.5 -40t152.5 -132v49q0 41 28 68.5t67 27.5q41 0 68.5 -27.5t27.5 -68.5v-830zM956 508q0 78 -25.5 145.5t-71.5 116.5t-110.5 76.5t-144.5 27.5q-76 0 -140.5 -29.5t-110.5 -79.5t-72.5 -116.5t-26.5 -140.5q0 -72 26.5 -137.5t72.5 -114.5t110.5 -77.5 t138.5 -28.5q76 0 140.5 27.5t111.5 76.5t74.5 114.5t27.5 139.5z" />
<glyph unicode="&#xe4;" horiz-adv-x="1247" d="M866 1292q0 -41 -28.5 -70.5t-69.5 -29.5t-70.5 29.5t-29.5 70.5t29.5 70t70.5 29t69.5 -29t28.5 -70zM563 1292q0 -41 -29.5 -70.5t-70.5 -29.5t-71 29.5t-30 70.5t30 70t71 29t70.5 -29t29.5 -70zM1145 96q0 -41 -27.5 -68.5t-68.5 -27.5q-39 0 -67 27.5t-28 68.5v62 q-59 -98 -149 -141.5t-201 -43.5q-115 0 -214 40t-172 111t-115 169t-42 213q0 117 41 217t114 172t172 113t216 41q106 0 197.5 -40t152.5 -132v49q0 41 28 68.5t67 27.5q41 0 68.5 -27.5t27.5 -68.5v-830zM956 508q0 78 -25.5 145.5t-71.5 116.5t-110.5 76.5t-144.5 27.5 q-76 0 -140.5 -29.5t-110.5 -79.5t-72.5 -116.5t-26.5 -140.5q0 -72 26.5 -137.5t72.5 -114.5t110.5 -77.5t138.5 -28.5q76 0 140.5 27.5t111.5 76.5t74.5 114.5t27.5 139.5z" />
<glyph unicode="&#xe5;" horiz-adv-x="1247" d="M768 1339q0 -66 -47 -112.5t-115 -46.5q-66 0 -113 47t-47 112q0 68 46.5 115t113.5 47q70 0 116 -47t46 -115zM1145 96q0 -41 -27.5 -68.5t-68.5 -27.5q-39 0 -67 27.5t-28 68.5v62q-59 -98 -149 -141.5t-201 -43.5q-115 0 -214 40t-172 111t-115 169t-42 213 q0 117 41 217t114 172t172 113t216 41q106 0 197.5 -40t152.5 -132v49q0 41 28 68.5t67 27.5q41 0 68.5 -27.5t27.5 -68.5v-830zM707 1339q0 41 -29 71t-72 30q-41 0 -69.5 -30t-28.5 -71t28.5 -69.5t69.5 -28.5t71 28.5t30 69.5zM956 508q0 78 -25.5 145.5t-71.5 116.5 t-110.5 76.5t-144.5 27.5q-76 0 -140.5 -29.5t-110.5 -79.5t-72.5 -116.5t-26.5 -140.5q0 -72 26.5 -137.5t72.5 -114.5t110.5 -77.5t138.5 -28.5q76 0 140.5 27.5t111.5 76.5t74.5 114.5t27.5 139.5z" />
<glyph unicode="&#xe6;" horiz-adv-x="2082" d="M2021 524v-47q0 -25 -4 -49h-837q29 -121 113.5 -199.5t211.5 -78.5q98 0 164 43t123 118q16 20 33.5 34.5t46.5 14.5q37 0 63.5 -25.5t26.5 -62.5q0 -14 -6 -26q-31 -63 -80 -113.5t-110.5 -86.5t-130 -54.5t-136.5 -18.5q-117 0 -206 51.5t-148 133.5v-62 q0 -41 -27.5 -68.5t-68.5 -27.5q-39 0 -67 27.5t-28 68.5v62q-59 -98 -149 -141.5t-201 -43.5q-115 0 -214 40t-172 111t-115 169t-42 213q0 117 41 217t114 172t172 113t216 41q106 0 197.5 -44t152.5 -137v58q0 41 28 68.5t67 27.5q41 0 68.5 -27.5t27.5 -68.5v-58 q59 80 148 130.5t210 50.5q109 0 203 -41t165 -113t110.5 -167t39.5 -204zM1831 575q-4 63 -33 119t-74 95.5t-103 62t-120 22.5q-63 0 -119.5 -22.5t-100.5 -62t-71.5 -95t-29.5 -119.5h651zM936 508q0 78 -22.5 145.5t-64.5 116.5t-103.5 76.5t-141.5 27.5 q-76 0 -140.5 -29.5t-110.5 -79.5t-72.5 -116.5t-26.5 -140.5q0 -72 26.5 -137.5t72.5 -114.5t110.5 -77.5t138.5 -28.5q76 0 137.5 27.5t105.5 76.5t67.5 114.5t23.5 139.5z" />
<glyph unicode="&#xe7;" horiz-adv-x="1103" d="M1042 270q0 -39 -22 -73q-31 -49 -75 -88t-95 -67t-108.5 -45t-114.5 -22l-45 -77q10 2 30 2q76 0 123 -51.5t47 -124.5q0 -74 -49 -126.5t-125 -52.5q-72 0 -121 45t-49 117q0 14 10.5 24.5t24.5 10.5q16 0 23.5 -11.5t11.5 -25.5q6 -41 32.5 -68.5t67.5 -27.5 q45 0 73 33.5t28 74.5q0 43 -25 81t-78 38q-27 0 -41 -4t-23.5 -8t-15.5 -8t-18 -4q-16 0 -26.5 14t-0.5 33l68 116q-106 6 -196.5 50.5t-155 116t-100.5 165.5t-36 203q0 113 39 211t110 170t166 114t210 42q61 0 124.5 -14.5t121 -43t105.5 -70.5t83 -96q23 -35 22 -73 q0 -39 -24.5 -70t-65.5 -31q-20 0 -41.5 7.5t-33.5 23.5q-8 10 -13.5 23.5t-11.5 23.5q-39 72 -111.5 108.5t-152.5 36.5q-78 0 -140.5 -27.5t-105.5 -76.5t-65.5 -115.5t-22.5 -142.5t22.5 -141.5t65.5 -114.5t105.5 -76.5t140.5 -27.5q80 0 152.5 36.5t111.5 108.5 q6 10 11 23.5t14 21.5q12 16 33.5 24.5t41.5 8.5q41 0 65.5 -32t24.5 -71z" />
<glyph unicode="&#xe8;" horiz-adv-x="1165" d="M877 1190q-16 -31 -50 -42t-65 5l-385 197q-33 16 -44 50t5 64q16 31 50 42.5t67 -5.5l385 -194q31 -16 42 -50t-5 -67zM1104 524v-47q0 -25 -4 -49h-846q14 -59 44 -110.5t74 -88t98 -58t118 -21.5q98 0 163.5 43t122.5 118q16 20 34 34.5t46 14.5q37 0 63.5 -25.5 t26.5 -62.5q0 -14 -6 -26q-31 -63 -80 -113.5t-110.5 -86.5t-130 -54.5t-135.5 -18.5q-111 0 -205 44t-165 118t-111 171t-40 206q0 111 40 209t110 171t166 115t209 42q109 0 203 -41t164.5 -113t110.5 -167t40 -204zM913 575q-4 63 -32.5 119t-73.5 95.5t-103.5 62 t-119.5 22.5q-63 0 -122 -22.5t-104 -62t-73.5 -95t-30.5 -119.5h659z" />
<glyph unicode="&#xe9;" horiz-adv-x="1165" d="M879 1464q16 -31 4.5 -64.5t-41.5 -49.5l-385 -197q-31 -16 -65 -5t-50 42q-16 33 -5 66.5t42 50.5l385 194q31 16 65 5t50 -42zM1104 524v-47q0 -25 -4 -49h-846q14 -59 44 -110.5t74 -88t98 -58t118 -21.5q98 0 163.5 43t122.5 118q16 20 34 34.5t46 14.5 q37 0 63.5 -25.5t26.5 -62.5q0 -14 -6 -26q-31 -63 -80 -113.5t-110.5 -86.5t-130 -54.5t-135.5 -18.5q-111 0 -205 44t-165 118t-111 171t-40 206q0 111 40 209t110 171t166 115t209 42q109 0 203 -41t164.5 -113t110.5 -167t40 -204zM913 575q-4 63 -32.5 119t-73.5 95.5 t-103.5 62t-119.5 22.5q-63 0 -122 -22.5t-104 -62t-73.5 -95t-30.5 -119.5h659z" />
<glyph unicode="&#xea;" horiz-adv-x="1165" d="M879 1202q0 -33 -24 -54.5t-54 -21.5q-35 0 -56 23l-157 160l-162 -160q-20 -23 -55 -23q-33 0 -54.5 22.5t-21.5 55.5t20 53l217 216q23 23 56 22q31 0 53 -22l215 -216q23 -22 23 -55zM1104 524v-47q0 -25 -4 -49h-846q14 -59 44 -110.5t74 -88t98 -58t118 -21.5 q98 0 163.5 43t122.5 118q16 20 34 34.5t46 14.5q37 0 63.5 -25.5t26.5 -62.5q0 -14 -6 -26q-31 -63 -80 -113.5t-110.5 -86.5t-130 -54.5t-135.5 -18.5q-111 0 -205 44t-165 118t-111 171t-40 206q0 111 40 209t110 171t166 115t209 42q109 0 203 -41t164.5 -113 t110.5 -167t40 -204zM913 575q-4 63 -32.5 119t-73.5 95.5t-103.5 62t-119.5 22.5q-63 0 -122 -22.5t-104 -62t-73.5 -95t-30.5 -119.5h659z" />
<glyph unicode="&#xeb;" horiz-adv-x="1165" d="M846 1292q0 -41 -29 -70.5t-69 -29.5q-41 0 -71 29.5t-30 70.5t30 70t71 29t69.5 -29t28.5 -70zM543 1292q0 -41 -30 -70.5t-71 -29.5t-70.5 29.5t-29.5 70.5t29.5 70t70.5 29t71 -29t30 -70zM1104 524v-47q0 -25 -4 -49h-846q14 -59 44 -110.5t74 -88t98 -58t118 -21.5 q98 0 163.5 43t122.5 118q16 20 34 34.5t46 14.5q37 0 63.5 -25.5t26.5 -62.5q0 -14 -6 -26q-31 -63 -80 -113.5t-110.5 -86.5t-130 -54.5t-135.5 -18.5q-111 0 -205 44t-165 118t-111 171t-40 206q0 111 40 209t110 171t166 115t209 42q109 0 203 -41t164.5 -113 t110.5 -167t40 -204zM913 575q-4 63 -32.5 119t-73.5 95.5t-103.5 62t-119.5 22.5q-63 0 -122 -22.5t-104 -62t-73.5 -95t-30.5 -119.5h659z" />
<glyph unicode="&#xec;" horiz-adv-x="419" d="M489 1190q-16 -31 -49.5 -42t-64.5 5l-385 197q-31 16 -42 50t5 64q16 31 50 42.5t65 -5.5l385 -194q31 -16 41.5 -50t-5.5 -67zM305 96q0 -41 -27.5 -68.5t-68.5 -27.5q-39 0 -67.5 27.5t-28.5 68.5v830q0 39 28.5 67.5t67.5 28.5q41 0 68.5 -28.5t27.5 -67.5v-830z" />
<glyph unicode="&#xed;" horiz-adv-x="419" d="M481 1464q16 -31 5 -64.5t-42 -49.5l-385 -197q-31 -16 -64.5 -5t-49.5 42q-16 33 -5 66.5t42 50.5l385 194q31 16 64.5 5t49.5 -42zM305 96q0 -41 -27.5 -68.5t-68.5 -27.5q-39 0 -67.5 27.5t-28.5 68.5v830q0 39 28.5 67.5t67.5 28.5q41 0 68.5 -28.5t27.5 -67.5v-830z " />
<glyph unicode="&#xee;" horiz-adv-x="419" d="M500 1202q0 -33 -23.5 -54.5t-54.5 -21.5q-35 0 -55 23l-158 160l-162 -160q-20 -23 -55 -23q-33 0 -54.5 22.5t-21.5 55.5t21 53l217 216q23 23 55 22q31 0 53 -22l215 -216q23 -22 23 -55zM305 96q0 -41 -27.5 -68.5t-68.5 -27.5q-39 0 -67.5 27.5t-28.5 68.5v830 q0 39 28.5 67.5t67.5 28.5q41 0 68.5 -28.5t27.5 -67.5v-830z" />
<glyph unicode="&#xef;" horiz-adv-x="419" d="M461 1292q0 -41 -29 -70.5t-70 -29.5t-70.5 29.5t-29.5 70.5t30 70t70 29q41 0 70 -29t29 -70zM158 1292q0 -41 -30 -70.5t-71 -29.5t-70.5 29.5t-29.5 70.5t29.5 70t70.5 29t71 -29t30 -70zM305 96q0 -41 -27.5 -68.5t-68.5 -27.5q-39 0 -67.5 27.5t-28.5 68.5v830 q0 39 28.5 67.5t67.5 28.5q41 0 68.5 -28.5t27.5 -67.5v-830z" />
<glyph unicode="&#xf0;" horiz-adv-x="1193" d="M1133 528q0 -111 -39 -211t-110 -177t-167 -122t-211 -45q-106 0 -204.5 41t-174 113t-121 168t-45.5 205q0 117 37 217t105.5 173t166 113.5t216.5 40.5q41 0 92 -10t88 -26q-10 12 -27.5 29.5t-40 37t-48 39t-50.5 33.5l-176 -76q-18 -8 -33.5 -1t-22 21.5t-1 30 t23.5 23.5l117 51q-53 29 -100 47q-23 10 -32 29.5t-9 46.5q0 35 26.5 60.5t61.5 25.5q16 0 49 -13.5t70.5 -32t74.5 -39.5l62 -36l147 64q18 8 32.5 0.5t21 -21.5t2 -29.5t-22.5 -23.5l-100 -45q96 -72 161.5 -148.5t105.5 -163t57.5 -182.5t17.5 -207zM944 516 q0 70 -28.5 134.5t-78 113.5t-114 78.5t-133.5 29.5q-78 0 -141.5 -30.5t-107.5 -81.5t-67.5 -120t-23.5 -142q0 -72 31.5 -134.5t83 -109.5t117 -74.5t132.5 -27.5q76 0 137.5 29.5t104.5 80.5t65.5 116.5t22.5 137.5z" />
<glyph unicode="&#xf1;" horiz-adv-x="1091" d="M907 1317q0 -31 -19.5 -55.5t-47 -43t-60 -28.5t-57.5 -10q-43 0 -86 17t-84 37l-81 37q-40 17 -79 17q-18 0 -31.5 -8t-24.5 -17.5t-24.5 -16.5t-31.5 -7q-29 0 -50.5 22.5t-21.5 51.5t19.5 54.5t48 44t61.5 28.5t57 10q43 0 86 -17.5t85 -37.5l81 -38q39 -17 76 -18 q20 0 32.5 7.5t22.5 16.5t22.5 17.5t35.5 8.5q31 0 51 -21.5t20 -50.5zM1010 96q0 -41 -29 -68.5t-68 -27.5t-67.5 27.5t-28.5 68.5v459q0 63 -11 121.5t-41 102.5t-79 69.5t-123 25.5q-72 0 -122 -25.5t-83.5 -69.5t-49 -101t-15.5 -121v-461q0 -41 -27.5 -68.5 t-66.5 -27.5q-41 0 -69 27.5t-28 68.5v862q0 37 27 64t64 27q35 0 67.5 -26t32.5 -65v-47q53 61 122.5 99.5t168.5 38.5q205 0 315.5 -122t110.5 -343v-488z" />
<glyph unicode="&#xf2;" horiz-adv-x="1224" d="M895 1190q-16 -31 -50 -42t-65 5l-385 197q-31 16 -43 50t4 64q16 31 50 42.5t67 -5.5l385 -194q31 -16 42 -50t-5 -67zM1163 514q0 -115 -44 -213t-119.5 -171t-175 -115t-212.5 -42t-213 42t-174.5 116t-119 173t-44.5 214q0 113 44.5 210t120 168t176 112t210.5 41 q113 0 212.5 -41t175 -113t119.5 -169t44 -212zM973 514q0 76 -27.5 141.5t-77 114.5t-115 76.5t-141.5 27.5t-141 -28.5t-113.5 -77.5t-76 -114.5t-27.5 -141.5q0 -74 27.5 -140.5t76 -115.5t114 -77.5t140.5 -28.5q76 0 141.5 28.5t115 78.5t77 116.5t27.5 140.5z" />
<glyph unicode="&#xf3;" horiz-adv-x="1224" d="M879 1464q16 -31 4.5 -64.5t-41.5 -49.5l-385 -197q-31 -16 -65 -5t-50 42q-16 33 -5 66.5t42 50.5l385 194q31 16 65 5t50 -42zM1163 514q0 -115 -44 -213t-119.5 -171t-175 -115t-212.5 -42t-213 42t-174.5 116t-119 173t-44.5 214q0 113 44.5 210t120 168t176 112 t210.5 41q113 0 212.5 -41t175 -113t119.5 -169t44 -212zM973 514q0 76 -27.5 141.5t-77 114.5t-115 76.5t-141.5 27.5t-141 -28.5t-113.5 -77.5t-76 -114.5t-27.5 -141.5q0 -74 27.5 -140.5t76 -115.5t114 -77.5t140.5 -28.5q76 0 141.5 28.5t115 78.5t77 116.5t27.5 140.5 z" />
<glyph unicode="&#xf4;" horiz-adv-x="1224" d="M903 1202q0 -33 -23.5 -54.5t-54.5 -21.5q-35 0 -55 23l-158 160l-161 -160q-20 -23 -56 -23q-33 0 -54.5 22.5t-21.5 55.5t21 53l217 216q23 23 55 22q31 0 54 -22l215 -216q22 -22 22 -55zM1163 514q0 -115 -44 -213t-119.5 -171t-175 -115t-212.5 -42t-213 42 t-174.5 116t-119 173t-44.5 214q0 113 44.5 210t120 168t176 112t210.5 41q113 0 212.5 -41t175 -113t119.5 -169t44 -212zM973 514q0 76 -27.5 141.5t-77 114.5t-115 76.5t-141.5 27.5t-141 -28.5t-113.5 -77.5t-76 -114.5t-27.5 -141.5q0 -74 27.5 -140.5t76 -115.5 t114 -77.5t140.5 -28.5q76 0 141.5 28.5t115 78.5t77 116.5t27.5 140.5z" />
<glyph unicode="&#xf5;" horiz-adv-x="1224" d="M969 1317q0 -31 -19.5 -55.5t-47.5 -43t-60.5 -28.5t-57.5 -10q-43 0 -86 17t-84 37l-80 37q-40 17 -79 17q-18 0 -31.5 -8t-25 -17.5t-25 -16.5t-31.5 -7q-29 0 -50.5 22.5t-21.5 51.5t19.5 54.5t48.5 44t61.5 28.5t57.5 10q43 0 86 -17.5t85 -37.5l81 -38 q39 -17 75 -18q20 0 32.5 7.5t23 16.5t22.5 17.5t35 8.5q31 0 51.5 -21.5t20.5 -50.5zM1163 514q0 -115 -44 -213t-119.5 -171t-175 -115t-212.5 -42t-213 42t-174.5 116t-119 173t-44.5 214q0 113 44.5 210t120 168t176 112t210.5 41q113 0 212.5 -41t175 -113t119.5 -169 t44 -212zM973 514q0 76 -27.5 141.5t-77 114.5t-115 76.5t-141.5 27.5t-141 -28.5t-113.5 -77.5t-76 -114.5t-27.5 -141.5q0 -74 27.5 -140.5t76 -115.5t114 -77.5t140.5 -28.5q76 0 141.5 28.5t115 78.5t77 116.5t27.5 140.5z" />
<glyph unicode="&#xf6;" horiz-adv-x="1224" d="M866 1292q0 -41 -28.5 -70.5t-69.5 -29.5t-70.5 29.5t-29.5 70.5t29.5 70t70.5 29t69.5 -29t28.5 -70zM563 1292q0 -41 -29.5 -70.5t-70.5 -29.5t-71 29.5t-30 70.5t30 70t71 29t70.5 -29t29.5 -70zM1163 514q0 -115 -44 -213t-119.5 -171t-175 -115t-212.5 -42t-213 42 t-174.5 116t-119 173t-44.5 214q0 113 44.5 210t120 168t176 112t210.5 41q113 0 212.5 -41t175 -113t119.5 -169t44 -212zM973 514q0 76 -27.5 141.5t-77 114.5t-115 76.5t-141.5 27.5t-141 -28.5t-113.5 -77.5t-76 -114.5t-27.5 -141.5q0 -74 27.5 -140.5t76 -115.5 t114 -77.5t140.5 -28.5q76 0 141.5 28.5t115 78.5t77 116.5t27.5 140.5z" />
<glyph unicode="&#xf7;" horiz-adv-x="1093" d="M643 782q0 -39 -27.5 -66.5t-68.5 -27.5t-68.5 27.5t-27.5 66.5q0 41 27.5 69t68.5 28t68.5 -28t27.5 -69zM1012 434q0 -39 -28 -66.5t-69 -27.5h-737q-41 0 -68.5 27.5t-27.5 66.5q0 41 27.5 68.5t68.5 27.5h737q41 0 69 -27.5t28 -68.5zM643 96q0 -41 -27.5 -68.5 t-68.5 -27.5t-68.5 27.5t-27.5 68.5t27.5 69t68.5 28t68.5 -28t27.5 -69z" />
<glyph unicode="&#xf8;" horiz-adv-x="1189" d="M1163 514q0 -115 -44 -213t-119.5 -171t-175 -115t-212.5 -42q-68 0 -131 16.5t-121 45.5l-71 -105q-23 -31 -52.5 -33.5t-54 13.5t-34 46t13.5 62l71 105q-80 74 -126 175t-46 220q0 113 44.5 210t120 168t176 112t210.5 41q117 0 226 -45l61 88q20 33 51 34.5 t55.5 -14.5t33 -46t-12.5 -60l-57 -82q90 -72 142 -177.5t52 -232.5zM973 514q0 78 -29 143.5t-80 114.5l-403 -590q76 -33 151 -32q76 0 141.5 28.5t115 78.5t77 116.5t27.5 140.5zM735 852q-61 23 -123 22q-76 0 -141 -28.5t-113.5 -77.5t-76 -114.5t-27.5 -141.5 q0 -137 86 -236z" />
<glyph unicode="&#xf9;" d="M813 1190q-16 -31 -50 -42t-65 5l-385 197q-31 16 -43 50t4 64q16 31 50 42.5t67 -5.5l385 -194q31 -16 42 -50t-5 -67zM975 469q0 -115 -24.5 -206t-79 -155.5t-139.5 -99.5t-204 -35q-121 0 -205.5 35t-138 99.5t-78 155.5t-24.5 206v457q0 39 27.5 67.5t68.5 28.5 q39 0 67.5 -28.5t28.5 -67.5v-457q0 -66 12.5 -124t41 -101t78 -68.5t122.5 -25.5q74 0 123 25.5t78 68.5t41 101t12 124v457q0 39 28 67.5t69 28.5q39 0 67.5 -28.5t28.5 -67.5v-457z" />
<glyph unicode="&#xfa;" d="M797 1464q16 -31 5 -64.5t-42 -49.5l-385 -197q-31 -16 -65 -5t-50 42q-16 33 -5 66.5t42 50.5l385 194q31 16 65 5t50 -42zM975 469q0 -115 -24.5 -206t-79 -155.5t-139.5 -99.5t-204 -35q-121 0 -205.5 35t-138 99.5t-78 155.5t-24.5 206v457q0 39 27.5 67.5t68.5 28.5 q39 0 67.5 -28.5t28.5 -67.5v-457q0 -66 12.5 -124t41 -101t78 -68.5t122.5 -25.5q74 0 123 25.5t78 68.5t41 101t12 124v457q0 39 28 67.5t69 28.5q39 0 67.5 -28.5t28.5 -67.5v-457z" />
<glyph unicode="&#xfb;" d="M827 1202q0 -33 -23.5 -54.5t-53.5 -21.5q-33 0 -56 23l-157 160l-162 -160q-23 -23 -56 -23t-54 22.5t-21 55.5t20 53l217 216q23 23 56 22q31 0 53 -22l215 -216q22 -22 22 -55zM975 449q0 -225 -107.5 -350.5t-339.5 -125.5q-231 0 -338.5 125t-107.5 351v477 q0 39 28.5 67.5t67.5 28.5t67.5 -28.5t28.5 -67.5v-477q0 -61 14.5 -117t45.5 -95.5t79 -63t115 -23.5q68 0 116 23.5t79 63t45 94t14 118.5v477q0 39 29 67.5t68 28.5t67.5 -28.5t28.5 -67.5v-477z" />
<glyph unicode="&#xfc;" d="M780 1292q0 -41 -28.5 -70.5t-69.5 -29.5t-70.5 29.5t-29.5 70.5t29.5 70t70.5 29t69.5 -29t28.5 -70zM477 1292q0 -41 -29.5 -70.5t-70.5 -29.5t-71 29.5t-30 70.5t30 70t71 29t70.5 -29t29.5 -70zM975 469q0 -115 -24.5 -206t-79 -155.5t-139.5 -99.5t-204 -35 q-121 0 -205.5 35t-138 99.5t-78 155.5t-24.5 206v457q0 39 27.5 67.5t68.5 28.5q39 0 67.5 -28.5t28.5 -67.5v-457q0 -66 12.5 -124t41 -101t78 -68.5t122.5 -25.5q74 0 123 25.5t78 68.5t41 101t12 124v457q0 39 28 67.5t69 28.5q39 0 67.5 -28.5t28.5 -67.5v-457z" />
<glyph unicode="&#xfd;" d="M817 1464q16 -31 5 -64.5t-42 -49.5l-385 -197q-31 -16 -64.5 -5t-49.5 42q-16 33 -5 66.5t41 50.5l385 194q31 16 65 5t50 -42zM975 469q0 -92 -17.5 -175t-58.5 -147.5t-107.5 -108.5t-166.5 -58v-320q0 -41 -29 -68.5t-68 -27.5q-41 0 -68.5 27.5t-27.5 68.5v320 q-100 14 -166.5 58t-107.5 108.5t-58.5 147.5t-17.5 175v457q0 39 27.5 67.5t68.5 28.5q39 0 67.5 -28.5t28.5 -67.5v-457q0 -66 12.5 -124t41 -101t78 -68.5t122.5 -25.5q74 0 123 25.5t78 68.5t41 101t12 124v457q0 39 28 67.5t69 28.5q39 0 67.5 -28.5t28.5 -67.5v-457z " />
<glyph unicode="&#xfe;" horiz-adv-x="1187" d="M1141 510q0 -111 -43 -209t-117 -171t-172 -115t-209 -42q-94 0 -184 34t-164 93v-338q0 -39 -26.5 -66.5t-67.5 -27.5q-39 0 -67 26.5t-28 67.5v977v-420v949q0 41 28 68.5t67 27.5q41 0 67.5 -28.5t26.5 -67.5v-346q74 61 164 94t184 33q111 0 209 -42t172 -116 t117 -172t43 -209zM948 510q0 74 -26.5 139.5t-72.5 115.5t-110.5 79.5t-138.5 29.5t-137.5 -29.5t-110.5 -79.5t-73.5 -115.5t-26.5 -139.5q0 -72 26.5 -137.5t73.5 -114.5t110.5 -78.5t137.5 -29.5t138.5 29.5t110.5 78.5t72.5 114.5t26.5 137.5z" />
<glyph unicode="&#xff;" horiz-adv-x="1097" d="M791 1272q0 -41 -30 -71t-71 -30t-70.5 30t-29.5 71t29.5 70.5t70.5 29.5t71 -29.5t30 -70.5zM506 1272q0 -41 -30 -71t-70 -30q-41 0 -70 30t-29 71t29 70.5t70 29.5t70.5 -29.5t29.5 -70.5zM995 451q0 -92 -17 -174t-58 -146.5t-108 -109t-167 -58.5v-321 q0 -39 -28.5 -67t-67.5 -28q-41 0 -68.5 28t-27.5 67v321q-100 14 -167 58.5t-108 109t-58.5 146t-17.5 174.5v458q0 39 28 67t69 28q39 0 67.5 -28t28.5 -67v-458q0 -66 12 -123.5t41 -100.5t78 -68.5t123 -25.5t123 25.5t77.5 68.5t41 100.5t12.5 123.5v458q0 39 27.5 67 t68.5 28q39 0 67.5 -28t28.5 -67v-458z" />
<glyph unicode="&#x131;" horiz-adv-x="419" d="M305 96q0 -41 -27.5 -68.5t-68.5 -27.5q-39 0 -67.5 27.5t-28.5 68.5v830q0 39 28.5 67.5t67.5 28.5q41 0 68.5 -28.5t27.5 -67.5v-830z" />
<glyph unicode="&#x141;" horiz-adv-x="1024" d="M963 86q0 -35 -27 -60.5t-62 -25.5h-587q-41 0 -70 28.5t-29 69.5v471l-43 -22q-33 -16 -66.5 -5t-49.5 42q-16 33 -4 66.5t43 49.5l120 62v600q0 41 29 69.5t70 28.5t69.5 -28.5t28.5 -69.5v-500l68 33q31 16 64.5 5t49.5 -42t5 -64.5t-42 -50.5l-145 -73v-498h489 q35 0 62 -25.5t27 -60.5z" />
<glyph unicode="&#x142;" horiz-adv-x="595" d="M567 858q16 -31 5 -64.5t-42 -50.5l-147 -73v-576q0 -39 -27.5 -67.5t-66.5 -28.5q-41 0 -68.5 28.5t-27.5 67.5v477l-48 -24q-33 -16 -66.5 -5t-49.5 42q-16 33 -4 66.5t43 49.5l125 64v598q0 39 27.5 67.5t68.5 28.5q39 0 66.5 -28.5t27.5 -67.5v-502l70 35 q31 16 64.5 5t49.5 -42z" />
<glyph unicode="&#x152;" horiz-adv-x="2258" d="M2198 86q0 -35 -25 -60.5t-59 -25.5h-590q-41 0 -70 28.5t-29 69.5v131q-102 -115 -248.5 -186.5t-332.5 -71.5q-182 0 -326.5 69t-246 178.5t-156 247.5t-54.5 277q0 156 61.5 292t168 238.5t249 162t304.5 59.5q174 0 323.5 -68.5t257.5 -185.5v119q0 41 30 70.5 t71 29.5h588q35 0 59.5 -24.5t24.5 -61.5q0 -35 -25 -60.5t-59 -25.5h-492v-461h492q35 0 59.5 -25.5t24.5 -60.5t-25 -60.5t-59 -25.5h-492v-483h492q35 0 59.5 -25.5t24.5 -60.5zM1425 778q0 111 -48 207t-128 167t-185.5 112t-219.5 41q-121 0 -228.5 -44t-187.5 -121 t-126 -179.5t-46 -219.5q0 -104 41 -207.5t116.5 -185.5t185.5 -133t245 -51q129 0 235.5 46t183 121t119.5 171t43 194v82z" />
<glyph unicode="&#x153;" horiz-adv-x="2076" d="M2015 524q0 -51 -6 -96h-846q31 -123 121 -201q94 -78 215 -77q174 0 285 161q37 49 80 49q39 0 63 -24q27 -27 27 -64q0 -14 -4 -26q-63 -125 -193 -199q-127 -74 -266 -74q-125 0 -242 64q-115 61 -184 172q-162 -236 -453 -236q-227 0 -389 160t-162 385 q0 223 164 377q162 154 387 154q287 0 453 -230q74 111 186 168q113 61 244 62q213 0 367 -154q153 -154 153 -371zM1823 575q-6 125 -105 211q-100 88 -225 88q-123 0 -223 -88q-98 -86 -107 -211h660zM973 514q0 147 -107 254q-106 106 -254 106q-147 0 -254 -106 q-104 -109 -104 -256q0 -150 104 -256t254 -106q152 0 254 108q107 111 107 256z" />
<glyph unicode="&#x160;" horiz-adv-x="1073" d="M846 1829q0 -35 -23 -55l-215 -213q-25 -25 -55 -25q-33 0 -53 25l-215 213q-23 23 -23 57q0 31 23 53q27 23 55 23q33 0 55 -23l158 -160l160 160q23 23 55 23q29 0 55 -23q23 -26 23 -55zM1022 418q0 -100 -37 -183t-101.5 -141.5t-150.5 -90.5t-184 -32 q-106 0 -197.5 32t-158 91.5t-104.5 145.5t-38 196q0 41 27.5 74t68.5 33q39 0 58.5 -21.5t29 -52.5t13.5 -65.5t12 -61.5q35 -102 114 -145t181 -43q53 0 102.5 20.5t87 56t60 82.5t22.5 103q0 80 -52 130t-131 88t-170 72.5t-170 85t-131 125t-52 191.5q0 84 33.5 155.5 t91 123t132.5 80t157 28.5q68 0 134 -14.5t123.5 -45t101.5 -79.5t69 -117q10 -27 16 -54.5t6 -56.5q0 -45 -27.5 -65.5t-68.5 -20.5q-35 0 -54.5 20.5t-35 52.5t-30.5 68t-43 67.5t-71 52t-112 20.5q-43 0 -84 -16.5t-73 -45t-52.5 -66.5t-20.5 -83q0 -82 52.5 -132 t131 -87t171 -69.5t171.5 -83t131 -126t52 -196.5z" />
<glyph unicode="&#x161;" horiz-adv-x="831" d="M719 1417q0 -35 -23 -55l-215 -213q-23 -25 -55 -25q-29 0 -53 25l-215 213q-23 23 -23 57q0 31 23 54q27 23 55 22q33 0 55 -22l158 -160l160 160q27 23 55 22q33 0 55 -22q23 -23 23 -56zM791 301q0 -78 -30 -138.5t-80 -102.5t-116.5 -64.5t-138.5 -22.5 q-78 0 -148.5 21.5t-123 63.5t-83 105.5t-30.5 147.5q0 39 27.5 68t68.5 29q39 0 67.5 -29t28.5 -68q0 -41 16.5 -73.5t44.5 -54t62.5 -33t73.5 -11.5q31 0 61.5 10.5t55 31t39 47t14.5 61.5q0 25 -13.5 45t-34 36.5t-43.5 27.5l-42 20l-84 35.5l-84 35.5l-41 17 q-20 8 -39 18q-63 41 -98 96.5t-35 133.5q0 68 30.5 122t80 93t112 59.5t123.5 20.5q63 0 123.5 -16.5t108 -50.5t76 -86t28.5 -122q0 -39 -28.5 -67.5t-67.5 -28.5q-53 0 -68.5 25.5t-21.5 70.5q-8 57 -57.5 82t-102.5 25q-25 0 -48.5 -8.5t-44 -23.5t-32.5 -36.5 t-12 -48.5q0 -25 13 -45.5t32.5 -35.5t42 -27.5t43.5 -20.5l54 -22l71 -27q37 -14 69.5 -29.5t48.5 -26.5q66 -41 99 -96t33 -133z" />
<glyph unicode="&#x178;" horiz-adv-x="1097" d="M793 1696q0 -41 -29 -71t-70 -30t-70.5 30t-29.5 71t29.5 70.5t70.5 29.5t70 -29.5t29 -70.5zM510 1696q0 -41 -29.5 -71t-70.5 -30t-71 30t-30 71t30 70.5t71 29.5t70.5 -29.5t29.5 -70.5zM1057 1360q0 -10 -2 -21.5t-8 -21.5l-398 -825v-392q0 -41 -29.5 -70.5 t-70.5 -29.5t-69.5 29.5t-28.5 70.5v392l-400 825q-10 20 -10 43q0 41 29.5 70.5t70.5 29.5q63 0 90 -55l318 -680l317 680q12 27 38 41t54 14q41 0 70 -29.5t29 -70.5z" />
<glyph unicode="&#x17d;" horiz-adv-x="1179" d="M866 1829q0 -35 -22 -55l-215 -213q-25 -25 -56 -25q-33 0 -53 25l-215 213q-23 23 -22 57q0 31 22 53q27 23 55 23q33 0 56 -23l157 -160l160 160q23 23 55 23q29 0 56 -23q22 -26 22 -55zM1118 1358q0 -25 -18 -53l-752 -1112h672q41 0 68.5 -28t27.5 -69t-27.5 -68.5 t-68.5 -27.5h-860q-41 0 -70 29.5t-29 70.5q0 20 6.5 35t18.5 31l745 1102h-671q-41 0 -69 27.5t-28 68.5t28 68.5t69 27.5h856q45 0 73.5 -28.5t28.5 -73.5z" />
<glyph unicode="&#x17e;" horiz-adv-x="970" d="M780 1397q0 -35 -22 -56l-215 -213q-23 -25 -56 -24q-29 0 -53 24l-215 213q-23 23 -22 58q0 31 22 53q27 23 55 23q33 0 56 -23l157 -160l160 160q27 23 55 23q33 0 56 -23q22 -22 22 -55zM909 86q0 -37 -24.5 -61.5t-61.5 -24.5h-673q-37 0 -63 26.5t-26 63.5 q0 29 17 49l571 707h-499q-37 0 -63 25.5t-26 62.5t27 62.5t62 25.5h667q37 0 64.5 -25.5t27.5 -64.5q0 -23 -16 -51.5t-31 -44.5l-540 -662h501q35 0 60.5 -25.5t25.5 -62.5z" />
<glyph unicode="&#x192;" horiz-adv-x="989" d="M907 1311q0 -39 -27.5 -62.5t-64.5 -23.5q-51 0 -79.5 -10.5t-45 -31t-26 -52t-17.5 -74.5l-49 -234h115q41 0 61.5 -23.5t20.5 -64.5q0 -35 -21.5 -60.5t-58.5 -25.5h-154l-151 -712q-10 -43 -18.5 -86.5t-24 -82t-41 -72.5t-68.5 -58q-43 -25 -93 -33t-99 -8 q-43 0 -75 18t-32 68q0 39 26.5 62.5t63.5 23.5q51 0 80 10t45 30.5t25 52.5l18 75l152 712h-103q-33 0 -56.5 29t-23.5 59q0 33 23.5 59.5t56.5 26.5h142l53 254q14 76 38.5 135.5t63.5 100.5t96.5 62.5t139.5 21.5q45 0 76.5 -18.5t31.5 -67.5z" />
<glyph unicode="&#x2c6;" horiz-adv-x="731" d="M657 1202q0 -33 -22.5 -54.5t-54.5 -21.5q-33 0 -56 23l-157 160l-160 -160q-20 -23 -55 -23q-33 0 -55.5 22.5t-22.5 55.5q0 31 22 53l215 216q23 23 56 22q31 0 53 -22l215 -216q22 -20 22 -55z" />
<glyph unicode="&#x2c7;" horiz-adv-x="731" d="M657 1417q0 -35 -22 -55l-215 -213q-23 -25 -55 -25q-29 0 -54 25l-215 213q-12 10 -17 25.5t-5 31.5q0 33 22.5 54.5t55.5 21.5t55 -22l158 -160l159 160q27 23 56 22q33 0 55 -22.5t22 -55.5z" />
<glyph unicode="&#x2d8;" horiz-adv-x="696" d="M641 1413q0 -63 -22.5 -115.5t-61.5 -89.5t-93 -57.5t-116 -20.5q-61 0 -115.5 20.5t-93.5 57.5t-61.5 89.5t-22.5 115.5q0 35 21.5 58.5t56.5 23.5q33 0 55.5 -22.5t22.5 -55.5q0 -29 9 -54.5t30 -43.5q20 -18 46 -27.5t52 -9.5q27 0 52.5 9t43.5 28q43 39 43 98 q0 35 21.5 56.5t54.5 21.5q35 0 56.5 -24.5t21.5 -57.5z" />
<glyph unicode="&#x2d9;" horiz-adv-x="346" d="M272 1292q0 -41 -28.5 -70.5t-69.5 -29.5t-70.5 29.5t-29.5 70.5t29.5 70t70.5 29t69.5 -29t28.5 -70z" />
<glyph unicode="&#x2da;" horiz-adv-x="468" d="M395 1339q0 -66 -47 -112.5t-115 -46.5q-66 0 -112.5 47t-46.5 112q0 68 46 115t113 47q70 0 116 -47t46 -115zM334 1339q0 41 -29 71t-72 30q-41 0 -69.5 -30t-28.5 -71t29 -69.5t69 -28.5q41 0 71 28.5t30 69.5z" />
<glyph unicode="&#x2db;" horiz-adv-x="581" d="M516 -209q0 -4 -4 -16q-20 -47 -61 -78t-95 -31q-72 0 -122 48t-50 122q0 45 19.5 84t36.5 80h77l-39 -81q-24 -46 -24 -87t26.5 -72.5t69.5 -31.5q33 0 52.5 15t31.5 35l23 35q10 15 24 15q16 0 25.5 -11.5t9.5 -25.5z" />
<glyph unicode="&#x2dc;" horiz-adv-x="829" d="M764 1317q0 -31 -19.5 -55.5t-47 -43t-60.5 -28.5t-57 -10q-43 0 -85 17t-83 36.5t-82 37t-80 17.5q-18 0 -31.5 -8t-25 -17.5t-24.5 -16.5t-32 -7q-29 0 -50 22.5t-21 51.5q0 31 19 55.5t48 43t61.5 28.5t57.5 10q43 0 86 -17.5t85 -37.5l81 -38q39 -17 76 -18 q20 0 32.5 7.5t22.5 16.5t22.5 17.5t34.5 8.5q31 0 51.5 -21.5t20.5 -50.5z" />
<glyph unicode="&#x2dd;" horiz-adv-x="874" d="M774 1411q0 -27 -18 -51l-156 -199q-23 -29 -55.5 -34t-61.5 18t-34 56.5t18 60.5l154 200q23 29 56.5 33t61.5 -16q16 -12 25.5 -30t9.5 -38zM299 1161q-23 -29 -56.5 -34t-62.5 18q-33 25 -33 69q0 27 17 48l155 200q23 29 56 33t61 -16q29 -23 34 -56.5t-17 -62.5z " />
<glyph unicode="&#x2000;" horiz-adv-x="956" />
<glyph unicode="&#x2001;" horiz-adv-x="1912" />
<glyph unicode="&#x2002;" horiz-adv-x="956" />
<glyph unicode="&#x2003;" horiz-adv-x="1912" />
<glyph unicode="&#x2004;" horiz-adv-x="636" />
<glyph unicode="&#x2005;" horiz-adv-x="477" />
<glyph unicode="&#x2006;" horiz-adv-x="317" />
<glyph unicode="&#x2007;" horiz-adv-x="317" />
<glyph unicode="&#x2008;" horiz-adv-x="237" />
<glyph unicode="&#x2009;" horiz-adv-x="380" />
<glyph unicode="&#x200a;" horiz-adv-x="104" />
<glyph unicode="&#x2010;" horiz-adv-x="831" d="M770 537q0 -39 -28.5 -68t-67.5 -29h-516q-41 0 -69 29t-28 68t28 67.5t69 28.5h516q39 0 67.5 -28.5t28.5 -67.5z" />
<glyph unicode="&#x2011;" horiz-adv-x="831" d="M770 537q0 -39 -28.5 -68t-67.5 -29h-516q-41 0 -69 29t-28 68t28 67.5t69 28.5h516q39 0 67.5 -28.5t28.5 -67.5z" />
<glyph unicode="&#x2012;" horiz-adv-x="831" d="M770 537q0 -39 -28.5 -68t-67.5 -29h-516q-41 0 -69 29t-28 68t28 67.5t69 28.5h516q39 0 67.5 -28.5t28.5 -67.5z" />
<glyph unicode="&#x2013;" horiz-adv-x="872" d="M791 532q0 -39 -29 -67q-29 -29 -68 -29h-516q-41 0 -69 29q-27 31 -27 67q0 41 27 68q29 29 69 29h516q39 0 68 -29t29 -68z" />
<glyph unicode="&#x2014;" horiz-adv-x="1830" d="M1749 532q0 -41 -27 -67q-29 -29 -67 -29h-1477q-41 0 -69 29q-27 31 -27 67q0 41 27 68q29 29 69 29h1477q39 0 67 -29q27 -27 27 -68z" />
<glyph unicode="&#x2018;" horiz-adv-x="497" d="M416 985q0 -47 -33 -79t-80 -32q-76 0 -104 72l-109 273q-8 18 -8 43q0 47 31.5 78.5t79.5 31.5q76 0 104 -72l109 -270q10 -25 10 -45z" />
<glyph unicode="&#x2019;" horiz-adv-x="497" d="M416 1262q0 -25 -8 -43l-109 -273q-29 -72 -104 -72q-47 0 -80 32t-33 79q0 12 2 23.5t6 21.5l111 270q29 72 104 72q47 0 79 -31.5t32 -78.5z" />
<glyph unicode="&#x201a;" horiz-adv-x="579" d="M457 115q0 -27 -8 -45l-111 -273q-29 -70 -102 -69q-47 0 -80 32.5t-33 79.5q0 25 8 41l111 273q29 70 102 69q45 0 79 -30.5t34 -77.5z" />
<glyph unicode="&#x201c;" horiz-adv-x="860" d="M778 987q0 -47 -32.5 -80t-79.5 -33q-74 0 -103 72l-110 273q-8 16 -9 43q0 47 33 78.5t80 31.5q74 0 102 -72l111 -270q8 -16 8 -43zM416 987q0 -47 -33 -80t-80 -33q-74 0 -102 72l-111 273q-8 18 -8 43q0 47 34 78.5t79 31.5q74 0 102 -72l111 -270q8 -16 8 -43z" />
<glyph unicode="&#x201d;" horiz-adv-x="860" d="M778 1262q0 -25 -8 -43l-111 -273q-29 -72 -102 -72q-47 0 -80 33t-33 80q0 27 9 43l110 270q29 72 103 72q45 0 78.5 -31.5t33.5 -78.5zM416 1262q0 -27 -8 -43l-111 -273q-29 -72 -102 -72q-47 0 -80 33t-33 80q0 27 8 43l111 270q29 72 102 72q47 0 80 -31.5t33 -78.5 z" />
<glyph unicode="&#x201e;" horiz-adv-x="933" d="M811 113q0 -25 -8 -43l-111 -273q-27 -70 -104 -69q-47 0 -79 32.5t-32 79.5q0 23 6 41l111 273q29 70 104 69q47 0 80 -31.5t33 -78.5zM459 113q0 -18 -10 -43l-111 -273q-27 -70 -102 -69q-47 0 -80 32.5t-33 79.5q0 25 8 41l111 273q29 70 104 69q47 0 80 -31.5 t33 -78.5z" />
<glyph unicode="&#x2020;" horiz-adv-x="952" d="M870 1030q0 -35 -24.5 -61.5t-61.5 -26.5h-215v-1053q0 -39 -28.5 -67.5t-67.5 -28.5q-41 0 -68.5 28.5t-27.5 67.5v1053h-207q-37 0 -62.5 25.5t-25.5 62.5t26.5 61.5t61.5 24.5h207v248q0 39 27.5 67.5t68.5 28.5q39 0 67.5 -28.5t28.5 -67.5v-248h215q37 0 61.5 -24.5 t24.5 -61.5z" />
<glyph unicode="&#x2021;" horiz-adv-x="954" d="M872 225q0 -37 -25.5 -62.5t-62.5 -25.5h-215v-248q0 -39 -27.5 -67.5t-68.5 -28.5q-39 0 -67.5 28.5t-28.5 67.5v248h-205q-37 0 -63.5 25.5t-26.5 62.5q0 35 26.5 60.5t63.5 25.5h205v631h-205q-37 0 -63.5 25.5t-26.5 62.5t26.5 61.5t63.5 24.5h205v248 q0 39 28.5 67.5t67.5 28.5q41 0 68.5 -28.5t27.5 -67.5v-248h215q37 0 62.5 -24.5t25.5 -61.5q0 -35 -25.5 -61.5t-62.5 -26.5h-215v-631h215q37 0 62.5 -24.5t25.5 -61.5z" />
<glyph unicode="&#x2022;" horiz-adv-x="866" d="M702 713q0 -57 -21.5 -106.5t-58 -86.5t-86 -58.5t-104.5 -21.5t-104 21.5t-86 59.5t-57.5 87t-20.5 105q0 55 20.5 104t56 87t85 60.5t108.5 22.5q55 0 104.5 -21.5t85 -58.5t57 -87t21.5 -107z" />
<glyph unicode="&#x2026;" horiz-adv-x="1363" d="M1241 113q0 -47 -32.5 -80t-80.5 -33q-47 0 -79.5 33t-32.5 80t32.5 79.5t79.5 32.5t80 -32.5t33 -79.5zM795 113q0 -47 -33 -80t-80 -33t-80 33t-33 80t33 79.5t80 32.5t80 -32.5t33 -79.5zM348 113q0 -47 -32.5 -80t-79.5 -33t-80 33t-33 80t32.5 79.5t80.5 32.5 q47 0 79.5 -32.5t32.5 -79.5z" />
<glyph unicode="&#x202f;" horiz-adv-x="380" />
<glyph unicode="&#x2030;" horiz-adv-x="2185" d="M2130 303q0 -68 -26.5 -128t-71.5 -105t-105.5 -71t-130.5 -26q-68 0 -128 26t-105 71t-72 105.5t-27 127.5q0 70 27 130.5t72 105.5t105.5 70.5t127.5 25.5q70 0 130.5 -25.5t105.5 -70.5t71.5 -105.5t26.5 -130.5zM1147 1315q0 -14 -10 -31l-723 -1266q-16 -25 -45 -24 q-53 0 -54 53q0 14 7 31l725 1263q16 27 45 27q55 0 55 -53zM705 1038q0 -70 -27 -130t-72 -104t-106.5 -69.5t-128.5 -25.5q-68 0 -129.5 25.5t-106.5 69.5t-71.5 104.5t-26.5 129.5q0 68 26.5 128.5t71.5 105.5t106.5 70.5t129.5 25.5t129 -25.5t106 -70.5t72 -105.5 t27 -128.5zM1411 303q0 -68 -26.5 -128t-71.5 -105t-105.5 -71t-130.5 -26q-68 0 -128 26t-105 71t-72 105.5t-27 127.5q0 70 27 130.5t72 105.5t105.5 70.5t127.5 25.5q70 0 130.5 -25.5t105.5 -70.5t71.5 -105.5t26.5 -130.5zM1978 303q0 78 -52 131t-130 53 q-76 0 -127 -53t-51 -131q0 -76 51 -129t127 -53q78 0 130 53t52 129zM549 1038q0 76 -50 129.5t-128 53.5t-128 -53.5t-50 -129.5t50 -130t128 -54t128 54t50 130zM1257 303q0 78 -51 131t-129 53q-76 0 -128 -53t-52 -131q0 -76 52 -129t128 -53q78 0 129 53t51 129z" />
<glyph unicode="&#x2039;" horiz-adv-x="514" d="M412 250q0 -31 -23 -53q-23 -23 -55 -23q-45 0 -66 37l-155 270q-10 12 -11 37q0 20 11 41l155 266q25 41 66 41q29 0 55 -22q23 -27 23 -56q0 -23 -9 -38l-133 -230l133 -231q9 -14 9 -39z" />
<glyph unicode="&#x203a;" horiz-adv-x="514" d="M412 518q0 -23 -9 -37l-155 -270q-23 -37 -68 -37q-33 0 -55 23q-23 23 -23 53q0 18 11 39l133 231l-133 230q-10 20 -11 38q0 29 23 56q27 23 55 22q43 0 68 -41l155 -266q9 -16 9 -41z" />
<glyph unicode="&#x2044;" horiz-adv-x="813" d="M752 1325q0 -12 -7 -25l-567 -1263q-10 -23 -34.5 -33t-47.5 0q-35 16 -35 55q0 12 7 25l567 1266q10 23 33.5 33t46.5 -1q37 -16 37 -57z" />
<glyph unicode="&#x205f;" horiz-adv-x="477" />
<glyph unicode="&#x2122;" horiz-adv-x="1222" d="M1120 924q0 -43 -41 -43q-43 0 -43 43v399h-2l-178 -399q-6 -14 -15.5 -17.5t-25.5 -3.5t-25.5 3t-17.5 18l-178 399h-2v-399q0 -43 -43 -43q-41 0 -41 43v487q0 29 20.5 39t44.5 10q45 0 68 -49l172 -395l176 395q20 49 66 49q25 0 45 -10t20 -39v-487zM444 1421 q0 -39 -38 -39h-111v-458q0 -43 -41 -43q-43 0 -43 43v458h-111q-39 0 -39 39t39 39h306q38 0 38 -39z" />
<glyph unicode="&#x2202;" horiz-adv-x="1193" d="M1133 528q0 -111 -39 -211t-110 -177t-167 -122t-211 -45q-106 0 -204.5 41t-174 113t-121 168t-45.5 205q0 117 37 216t105.5 173t166 114.5t216.5 40.5q43 0 92 -10t88 -26q-35 41 -86 81.5t-98 67.5l-63 33l-64 33l-23 9q-12 5 -24 11q-25 16 -33 31.5t-8 44.5 q0 35 26.5 60.5t61.5 25.5q18 0 58 -16.5t83 -39t82 -46t57 -35.5q104 -70 180 -147t124 -167t71 -195.5t23 -230.5zM944 516q0 70 -28.5 134.5t-78 113.5t-114 78.5t-133.5 29.5q-78 0 -141.5 -30.5t-107.5 -81.5t-67.5 -120t-23.5 -142q0 -72 31.5 -134.5t83 -109.5 t117 -74.5t132.5 -27.5q76 0 136.5 29.5t103.5 80.5t66.5 116.5t23.5 137.5z" />
<glyph unicode="&#x2212;" horiz-adv-x="1040" d="M985 434q0 -39 -27.5 -66.5t-68.5 -27.5h-737q-41 0 -69 27.5t-28 66.5q0 41 28 68.5t69 27.5h737q41 0 68.5 -27.5t27.5 -68.5z" />
<glyph unicode="&#x222b;" horiz-adv-x="1032" d="M956 1309q0 -10 -2 -15q-8 -33 -31.5 -51t-56.5 -18q-76 -2 -108.5 -23.5t-48.5 -95.5l-258 -1221q-16 -78 -44 -145.5t-98 -108.5q-43 -25 -94 -31t-100 -6q-43 0 -75 22t-32 69q0 4 1 8t1 8q8 33 33 49.5t57 18.5q76 0 109 21.5t49 94.5l258 1221q16 78 48 145.5 t104 108.5q43 25 89 31t95 6q41 0 72.5 -20.5t31.5 -67.5z" />
<glyph unicode="&#xe000;" horiz-adv-x="1020" d="M0 1020h1020v-1020h-1020v1020z" />
<glyph unicode="&#xfb01;" horiz-adv-x="995" d="M893 1257q0 -45 -32 -76.5t-77 -31.5t-76.5 31.5t-31.5 76.5t31.5 76t76.5 31q43 0 76 -31t33 -76zM879 96q0 -41 -28 -68.5t-67 -27.5q-41 0 -68.5 27.5t-27.5 68.5v750h-297v-750q0 -41 -27.5 -68.5t-68.5 -27.5t-68.5 29.5t-27.5 70.5v746h-70q-35 0 -61.5 26.5 t-26.5 61.5q0 37 26.5 62.5t61.5 25.5h70v49q0 76 28.5 136.5t94.5 101.5q33 20 55 31.5t43.5 16.5t47.5 6t62 1q37 0 64 -25.5t27 -60.5q0 -37 -27 -63.5t-64 -26.5q-72 0 -105.5 -20.5t-33.5 -96.5v-49h402q37 0 61.5 -25.5t24.5 -62.5v-838z" />
<glyph unicode="&#xfb02;" horiz-adv-x="1001" d="M688 1362q0 39 27.5 67.5t68.5 28.5t68 -27.5t27 -68.5v-1268q0 -39 -28 -67.5t-67 -28.5t-67.5 29.5t-28.5 66.5v752h-297v-750q0 -41 -27.5 -68.5t-68.5 -27.5t-68.5 29.5t-27.5 70.5v746h-70q-35 0 -61.5 26.5t-26.5 61.5q0 37 26.5 62.5t61.5 25.5h70v49 q0 76 28.5 135.5t94.5 102.5q31 20 54 31.5t44.5 16.5t47.5 6t62 1q37 0 64 -25.5t27 -60.5q0 -37 -27 -63.5t-64 -26.5q-51 0 -79.5 -8.5t-42 -29t-15.5 -52t-2 -76.5h297v340z" />
</font>
</defs>
</svg>
